<svg width="19" height="21" viewBox="0 0 19 21" fill="none" xmlns="http://www.w3.org/2000/svg">
<g clip-path="url(#clip0)">
<path d="M16.8964 0.511829C17.6038 0.434426 17.493 0.759088 17.4479 1.0128C17.1786 2.5858 16.6976 4.11513 16.0181 5.55913C13.5627 10.6935 9.3593 13.3306 3.82285 14.0519C3.43584 14.1025 3.40144 13.967 3.45949 13.6434C4.15504 9.74533 5.80522 6.36648 8.93251 3.838C11.3191 1.9083 14.1077 0.903143 16.8964 0.511829Z" fill="white"/>
<path d="M14.9431 20.4957C10.4624 20.4333 6.71479 18.7423 3.70038 15.4226C3.37787 15.0635 3.4585 14.9571 3.87991 14.8593C7.8683 13.9337 11.6202 14.4852 15.1291 16.6256C16.3922 17.4104 17.5353 18.3736 18.523 19.4852C18.953 19.9646 18.953 19.9646 18.3015 20.1237C17.2006 20.3792 16.0733 20.5041 14.9431 20.4957Z" fill="white"/>
<path d="M2.47893 13.7864C1.90661 13.0078 1.44362 12.1546 1.10288 11.2504C-0.168888 8.04784 -0.34842 4.78187 0.604064 1.46753C0.647065 1.3181 0.636315 1.09772 0.808321 1.06332C1.00398 1.02354 1.03515 1.2536 1.11471 1.38583C3.37229 5.04096 3.88078 8.95947 2.84229 13.1037C2.78886 13.3613 2.66277 13.5982 2.47893 13.7864Z" fill="#FCFDFE"/>
</g>
<defs>
<clipPath id="clip0">
<rect width="18.8185" height="20" fill="white" transform="translate(0 0.5)"/>
</clipPath>
</defs>
</svg>
