<svg width="19" height="20" viewBox="0 0 19 20" fill="none" xmlns="http://www.w3.org/2000/svg">
<g clip-path="url(#clip0)">
<path d="M16.9007 0.0118825C17.6081 -0.0655213 17.4974 0.259144 17.4522 0.512856C17.1829 2.08589 16.7019 3.61523 16.0224 5.05925C13.567 10.1937 9.36352 12.8308 3.82701 13.5522C3.43999 13.6027 3.40559 13.4672 3.46364 13.1436C4.1592 9.2455 5.8094 5.86661 8.93673 3.33809C11.3233 1.40837 14.112 0.403201 16.9007 0.0118825Z" fill="#353535"/>
<path d="M14.9464 19.9959C10.4656 19.9335 6.718 18.2425 3.70356 14.9227C3.38104 14.5636 3.46167 14.4572 3.88309 14.3594C7.87153 13.4338 11.6235 13.9853 15.1324 16.1257C16.3955 16.9106 17.5386 17.8737 18.5264 18.9853C18.9564 19.4648 18.9564 19.4648 18.3049 19.6239C17.2039 19.8794 16.0767 20.0042 14.9464 19.9959Z" fill="#353535"/>
<path d="M2.48287 13.2865C1.91054 12.5079 1.44755 11.6547 1.1068 10.7505C-0.164984 7.54788 -0.344518 4.28188 0.607978 0.967492C0.65098 0.81806 0.640229 0.597675 0.812238 0.563273C1.0079 0.523496 1.03907 0.753557 1.11863 0.885788C3.37624 4.54096 3.88473 8.45952 2.84624 12.6038C2.7928 12.8614 2.66671 13.0983 2.48287 13.2865Z" fill="#353535"/>
</g>
<defs>
<clipPath id="clip0">
<rect width="18.8188" height="20.0003" fill="white" transform="translate(0.00195312)"/>
</clipPath>
</defs>
</svg>
