<svg width="340" height="188" viewBox="0 0 340 188" fill="none" xmlns="http://www.w3.org/2000/svg">
<path d="M177.888 66.4667C171.391 78.0241 152.573 89.9936 141.455 83.2419C130.336 76.4881 131.129 53.5709 137.624 42.0135C144.122 30.4561 158.4 26.5618 169.518 33.3136C180.637 40.0653 184.383 54.9093 177.888 66.4667Z" fill="#6F4975"/>
<path d="M140.276 82.4282C140.276 82.4282 134.41 83.8516 135.25 85.3643C136.088 86.8769 137.889 86.4648 138.101 87.9116C138.314 89.3584 139.266 89.8109 140.327 89.6388C141.388 89.4688 141.762 90.9496 142.663 89.9915C143.565 89.0333 144.497 84.5824 142.792 83.108C141.085 81.6357 140.276 82.4282 140.276 82.4282Z" fill="#6F4975"/>
<path d="M177.573 49.7402C178.48 45.9543 175.999 40.4688 170.669 39.415C165.338 38.3612 169.567 44.0231 169.614 48.236C169.661 52.4489 176.743 53.1947 177.573 49.7402Z" fill="#A579AF"/>
<path d="M126.819 93.2632C125.906 93.2632 124.851 92.8511 123.895 92.082C121.706 90.3229 120.766 87.4505 121.379 84.3955C121.432 84.1299 121.503 83.875 121.595 83.6328C119.46 83.346 117.064 83.8134 115.184 85.77L115 85.5788C116.968 83.5308 119.48 83.0591 121.702 83.3757C122.078 82.528 122.695 81.8439 123.543 81.3319C125.638 80.0721 129.1 79.8532 133.834 80.6818C137.347 81.2958 140.286 82.2922 140.317 82.3007L140.235 82.5578C140.119 82.5174 128.555 78.6317 123.672 81.5656C122.895 82.0309 122.327 82.6512 121.969 83.4161C122.715 83.5435 123.423 83.7602 124.062 84.0322C127.089 85.3196 129.139 87.9285 129.16 90.529C129.172 92.0544 128.508 92.7193 127.95 93.0083C127.615 93.1782 127.232 93.2632 126.819 93.2632ZM121.859 83.671C121.763 83.9175 121.687 84.1766 121.632 84.4507C121.04 87.4017 121.945 90.1742 124.052 91.8674C125.344 92.9042 126.862 93.2653 127.833 92.764C128.54 92.3985 128.908 91.6273 128.898 90.5311C128.878 88.039 126.893 85.53 123.962 84.2829C123.322 84.0088 122.609 83.7942 121.859 83.671Z" fill="#6F4975"/>
<path d="M143.498 84.2445C143.498 84.2445 139.713 80.9918 139.278 81.9139C138.844 82.8359 139.609 82.5916 140.678 83.5179C141.749 84.4442 144.635 85.9717 143.498 84.2445Z" fill="#E28569"/>
<path d="M52.635 13.0565C61.6217 26.7192 64.5321 54.9159 51.3883 64.2595C38.2444 73.6011 14.0229 60.5522 5.03418 46.8894C-3.95254 33.2267 -0.584307 14.5755 12.5616 5.23398C25.7055 -4.10966 43.6462 -0.606334 52.635 13.0565Z" fill="#436E8E"/>
<path d="M49.889 65.2007C49.889 65.2007 48.3153 72.7683 50.3857 72.5941C52.4561 72.4198 52.965 70.1105 54.6328 70.6289C56.3005 71.1473 57.2898 70.2805 57.6679 68.9569C58.046 67.6333 59.8364 67.9838 59.2825 66.4308C58.7286 64.8778 54.4386 61.4382 51.9513 62.6386C49.466 63.841 49.889 65.2007 49.889 65.2007Z" fill="#436E8E"/>
<path d="M34.4815 4.5734C30.8926 1.51621 23.6819 1.49709 19.7271 7.1292C15.7723 12.7634 24.0989 10.8471 28.6525 13.0226C33.2082 15.196 37.7598 7.3629 34.4815 4.5734Z" fill="#B7C8F7"/>
<path d="M39.8986 96.2316C38.7397 92.86 39.5593 89.6945 41.0758 87.281C40.3625 86.3951 39.9537 85.3158 39.8536 84.0602C39.6083 80.9584 41.2066 76.8199 44.6014 71.7614C47.1215 68.0052 49.7457 65.1159 49.7723 65.0883L50.0053 65.3177C49.9011 65.4324 39.6022 76.8114 40.1724 84.0326C40.2623 85.1798 40.6282 86.1699 41.2618 86.9899C41.7952 86.1911 42.4022 85.4815 43.0317 84.8824C46.0178 82.0462 49.9092 81.0477 52.7134 82.3988C54.3607 83.1913 54.7225 84.3152 54.7368 85.1161C54.7633 86.6585 53.5309 88.3156 51.5974 89.3375C48.548 90.95 44.9611 90.523 42.0016 88.1924C41.7441 87.9885 41.507 87.7718 41.2945 87.5381C39.8577 89.8665 39.0912 92.8982 40.199 96.1169L39.8986 96.2316ZM41.4805 87.2513C41.6951 87.4935 41.9342 87.7186 42.1979 87.9269C45.0572 90.1767 48.5153 90.5931 51.4523 89.0401C53.2509 88.0904 54.4404 86.514 54.4159 85.1225C54.3975 84.1091 53.7618 83.272 52.5785 82.7027C49.8888 81.4088 46.1404 82.384 43.2484 85.131C42.6189 85.7322 42.0098 86.4461 41.4805 87.2513Z" fill="#6F4975"/>
<path d="M53.5462 62.4155C53.5462 62.4155 48.0462 65.0924 48.8065 66.0845C49.5668 67.0767 49.7099 66.0569 51.2734 65.307C52.837 64.5549 56.0049 62.0097 53.5462 62.4155Z" fill="#E28569"/>
<path d="M18.7988 88.5354C18.7988 88.5354 22.5165 88.9943 24.2987 85.4655C24.2987 85.4655 22.2937 84.0038 21.4435 84.2057C21.4435 84.2057 19.5366 87.2777 15.1035 86.1517C15.1056 86.1496 17.4805 88.2614 18.7988 88.5354Z" fill="#C96B55"/>
<path d="M9 82.6144C9 82.6144 11.1113 87.9809 18.8002 88.5354C18.8002 88.5354 13.4331 85.7544 13.2839 82.0811C13.2839 82.0811 10.7986 81.3397 9 82.6144Z" fill="#E28569"/>
<path d="M132.904 44.2106C132.904 44.2106 136.085 46.0854 139.042 43.7288C139.042 43.7288 137.79 41.6625 136.946 41.5012C136.946 41.5012 134.049 43.4123 130.479 40.6747C130.479 40.6727 131.817 43.4506 132.904 44.2106Z" fill="#C96B55"/>
<path d="M126.319 35.1772C126.319 35.1772 126.175 40.6766 132.905 44.2105C132.905 44.2105 129.123 39.6626 130.391 36.415C130.391 36.415 128.431 34.7841 126.319 35.1772Z" fill="#E28569"/>
<path d="M206.087 67.2727C206.087 67.2727 209.339 65.3457 208.756 61.4069C208.756 61.4069 206.308 61.4706 205.739 62.1568C205.739 62.1568 205.96 65.8067 201.752 67.6381C201.752 67.636 204.869 67.8675 206.087 67.2727Z" fill="#C96B55"/>
<path d="M194.822 68.5601C194.822 68.5601 199.588 71.5727 206.088 67.2727C206.088 67.2727 200.181 68.3477 197.964 65.486C197.964 65.486 195.542 66.4229 194.822 68.5601Z" fill="#E28569"/>
<path d="M242.495 150.022C242.495 150.022 245.929 151.573 248.612 148.726C248.612 148.726 247.096 146.727 246.227 146.665C246.227 146.665 243.55 149.038 239.617 146.633C239.615 146.633 241.305 149.365 242.495 150.022Z" fill="#C96B55"/>
<path d="M234.746 141.42C234.746 141.42 235.284 147.19 242.492 150.02C242.492 150.02 238.123 145.752 238.995 142.189C238.995 142.191 236.823 140.738 234.746 141.42Z" fill="#E28569"/>
<path d="M309.794 51.5558C301.496 62.2931 280.598 71.5072 270.268 62.8816C259.939 54.2561 264.09 31.0584 272.388 20.3211C280.686 9.58376 295.785 7.8714 306.115 16.4969C316.444 25.1225 318.092 40.8185 309.794 51.5558Z" fill="#E28569"/>
<path d="M269.186 61.8682C269.186 61.8682 263.01 62.3929 263.643 64.0649C264.277 65.7369 266.167 65.6009 266.174 67.1072C266.18 68.6114 267.081 69.2232 268.187 69.2169C269.292 69.2105 269.456 70.7763 270.513 69.9435C271.569 69.1106 273.168 64.7299 271.647 62.9602C270.126 61.1883 269.186 61.8682 269.186 61.8682Z" fill="#E28569"/>
<path d="M311.913 34.4833C313.388 30.7738 311.663 24.7997 306.394 22.8876C301.125 20.9734 304.6 27.4022 304.034 31.698C303.467 35.9917 310.566 37.8676 311.913 34.4833Z" fill="#F9A38F"/>
<path d="M254.351 70.804C253.309 70.804 252.107 70.1901 251.106 69.1066C249.136 66.9714 248.598 63.9015 249.667 60.8889C249.761 60.6255 249.871 60.3769 249.998 60.1432C247.866 59.5143 245.357 59.61 243.157 61.3053L243 61.0844C245.301 59.3104 247.926 59.2275 250.141 59.8989C250.648 59.0958 251.376 58.4946 252.314 58.11C257.82 55.8495 268.777 61.4986 269.241 61.7408L269.122 61.9852C269.01 61.9257 257.808 56.147 252.41 58.3629C251.551 58.7155 250.879 59.2573 250.405 59.9817C251.145 60.2303 251.835 60.5617 252.449 60.9399C255.341 62.7266 257.045 65.7052 256.688 68.3524C256.479 69.9054 255.706 70.4769 255.095 70.683C254.862 70.7658 254.611 70.804 254.351 70.804ZM250.262 60.2261C250.127 60.4619 250.012 60.7147 249.916 60.9845C248.882 63.8951 249.399 66.8588 251.298 68.9153C252.461 70.1752 253.955 70.7807 255.016 70.4238C255.788 70.1646 256.277 69.4359 256.428 68.3162C256.769 65.7774 255.118 62.9072 252.316 61.1778C251.703 60.8018 251.006 60.4704 250.262 60.2261Z" fill="#6F4975"/>
<path d="M272.2 64.2241C272.2 64.2241 268.821 60.3171 268.245 61.186C267.668 62.0549 268.484 61.9275 269.436 63.0407C270.389 64.1518 273.105 66.1595 272.2 64.2241Z" fill="#6F4975"/>
<path d="M314.635 85.4547C314.635 85.4547 318.972 83.3684 318.639 78.2908C318.639 78.2908 315.518 78.0953 314.723 78.9069C314.723 78.9069 314.627 83.5745 309.082 85.4334C309.082 85.4313 313.025 86.0772 314.635 85.4547Z" fill="#C96B55"/>
<path d="M300.168 85.8328C300.168 85.8328 305.919 90.1987 314.634 85.4546C314.634 85.4546 307.009 86.1621 304.483 82.2721C304.483 82.2721 301.304 83.1941 300.168 85.8328Z" fill="#E28569"/>
<path d="M259.278 102.066C259.278 102.066 260.088 103.186 262.501 103.46C262.501 103.46 263.425 102.591 263.656 101.973C263.887 101.353 264.247 100.299 263.899 100.171C263.552 100.044 262.315 99.7336 261.4 99.0857C260.484 98.4377 260.69 99.8016 259.94 100.443C259.19 101.085 258.804 101.629 259.278 102.066Z" fill="#E28569"/>
<path d="M312.659 71.2458C312.659 71.2458 314.414 71.5497 316.963 69.525C316.963 69.525 317.086 67.819 316.763 67.0074C316.442 66.1959 315.857 64.8468 315.414 65.055C314.97 65.2632 313.515 66.1364 312.072 66.3828C310.627 66.6293 312.021 67.7383 311.868 69.064C311.719 70.3897 311.823 71.2777 312.659 71.2458Z" fill="#9BBCB6"/>
<path d="M249.643 38.7004C249.643 38.7004 250.08 39.8435 252.122 40.6752C252.122 40.6752 253.138 40.1762 253.488 39.7139C253.84 39.2516 254.405 38.4547 254.132 38.2613C253.859 38.0679 252.856 37.4973 252.213 36.7256C251.569 35.9519 251.422 37.1491 250.614 37.5012C249.803 37.8551 249.333 38.2149 249.643 38.7004Z" fill="#436E8E"/>
<path d="M112.49 105.103C112.49 105.103 112.692 106.86 115.163 108.749C115.163 108.749 116.702 108.409 117.331 107.884C117.963 107.36 118.997 106.442 118.695 106.074C118.392 105.707 117.231 104.553 116.626 103.242C116.021 101.931 115.416 103.557 114.204 103.767C112.994 103.975 112.238 104.313 112.49 105.103Z" fill="#436E8E"/>
<path d="M234.142 76.0132C234.142 76.0132 235.48 76.7993 238.123 75.9389C238.123 75.9389 238.707 74.5919 238.677 73.8356C238.646 73.0771 238.556 71.8045 238.137 71.8364C237.718 71.8683 236.29 72.1296 235.049 71.8874C233.806 71.6452 234.622 72.9709 234.121 73.9992C233.62 75.0296 233.453 75.7816 234.142 76.0132Z" fill="#9BBCB6"/>
<path d="M126.677 56.5122C126.677 56.5122 128.061 56.1914 129.361 53.9033C129.361 53.9033 128.96 52.6052 128.488 52.1059C128.016 51.6067 127.198 50.7908 126.931 51.084C126.663 51.3772 125.839 52.4735 124.844 53.1044C123.849 53.7354 125.195 54.1221 125.465 55.1482C125.735 56.1723 126.068 56.7947 126.677 56.5122Z" fill="#E28569"/>
<path d="M144.829 133.725C144.829 133.725 146.702 133.291 148.459 130.196C148.459 130.196 147.918 128.441 147.28 127.765C146.642 127.09 145.537 125.987 145.175 126.382C144.813 126.777 143.699 128.26 142.354 129.114C141.007 129.968 142.831 130.491 143.194 131.878C143.556 133.264 144.006 134.109 144.829 133.725Z" fill="#E28569"/>
<path d="M216.79 39.0274C216.79 39.0274 218.091 38.3476 218.833 35.728C218.833 35.728 218.122 34.5404 217.531 34.1644C216.941 33.7883 215.929 33.1914 215.733 33.5504C215.537 33.9116 214.981 35.2182 214.141 36.1062C213.301 36.9943 214.738 37.0282 215.253 37.98C215.77 38.9318 216.252 39.4672 216.79 39.0274Z" fill="#E28569"/>
<path d="M336.268 127.247C336.268 127.247 338 126.846 339.624 123.984C339.624 123.984 339.124 122.361 338.533 121.736C337.944 121.111 336.92 120.092 336.585 120.457C336.25 120.823 335.22 122.193 333.975 122.983C332.731 123.774 334.417 124.256 334.752 125.539C335.091 126.822 335.508 127.602 336.268 127.247Z" fill="#E28569"/>
<path d="M103.211 66.595C103.211 66.595 104 65.3692 103.422 62.7815C103.422 62.7815 102.271 62.1293 101.597 62.1059C100.924 62.0825 99.79 62.0783 99.79 62.482C99.79 62.8856 99.9209 64.2687 99.6204 65.4393C99.32 66.6099 100.55 65.9237 101.427 66.4739C102.304 67.0242 102.96 67.2366 103.211 66.595Z" fill="#9BBCB6"/>
<path d="M207.287 92.8817C208.505 94.5983 209.971 95.3844 211.367 95.6755C211.369 95.6776 211.371 95.6776 211.375 95.6776C212.771 95.9665 214.093 95.7668 215.027 95.5182H215.029C215.845 95.2994 216.362 95.0424 216.362 95.0424L215.72 93.109L215.35 91.9979L214.283 88.7835L213.909 87.6596L212.891 84.6003C212.81 84.3539 212.489 84.3156 212.354 84.5366L211.898 85.2908L211.217 86.4083L210.175 88.1313L209.517 89.2127L208.571 90.7763L207.886 91.9002L207.287 92.8817Z" fill="#96A7E2"/>
<path d="M211.215 86.4042C211.607 87.5387 212.521 88.7964 214.281 88.7816L213.907 87.6577C213.285 87.5685 212.811 87.2158 212.466 86.5912C212.112 85.9581 211.895 85.2867 211.895 85.2867L211.215 86.4042Z" fill="#B6C9FF"/>
<path d="M209.514 89.2108C210.266 90.6236 212.097 93.088 215.719 93.1093L215.349 91.9981C211.891 91.7857 210.509 88.9686 210.174 88.1294L209.514 89.2108Z" fill="#B6C9FF"/>
<path d="M207.883 91.896C208.375 92.9243 209.424 94.6197 211.368 95.6756C211.37 95.6777 211.372 95.6777 211.376 95.6777C212.772 95.9666 214.094 95.7669 215.028 95.5184C210.284 95.376 208.762 91.35 208.57 90.7743L207.883 91.896Z" fill="#B6C9FF"/>
<path d="M212.942 84.0671C213.5 83.553 214.612 82.8264 216.196 83.2088C216.196 83.2088 215.869 83.8016 216.198 84.8489C216.198 84.8489 214.397 83.8462 213.052 84.2604C212.938 84.2966 212.852 84.15 212.942 84.0671Z" fill="#96A7E2"/>
<path d="M212.689 83.8972C212.626 83.3831 212.399 82.6714 211.645 82.4249C211.645 82.4249 211.61 82.9497 211.193 83.2131C211.193 83.2131 212.007 83.3873 212.465 83.9928C212.542 84.099 212.706 84.0311 212.689 83.8972Z" fill="#96A7E2"/>
<path d="M110.441 144.853C111.66 146.569 113.125 147.355 114.521 147.647C114.523 147.649 114.525 147.649 114.529 147.649C115.925 147.938 117.247 147.738 118.181 147.489H118.183C118.999 147.27 119.516 147.013 119.516 147.013L118.874 145.08L118.504 143.969L117.437 140.755L117.063 139.631L116.046 136.571C115.964 136.325 115.643 136.287 115.508 136.508L115.052 137.262L114.372 138.379L113.329 140.102L112.671 141.184L111.725 142.747L111.04 143.871L110.441 144.853Z" fill="#E28569"/>
<path d="M114.371 138.375C114.764 139.51 115.677 140.767 117.437 140.753L117.063 139.629C116.442 139.539 115.967 139.187 115.622 138.562C115.268 137.929 115.052 137.258 115.052 137.258L114.371 138.375Z" fill="#F2ACA0"/>
<path d="M112.668 141.182C113.42 142.595 115.251 145.059 118.873 145.08L118.503 143.969C115.045 143.757 113.663 140.94 113.328 140.1L112.668 141.182Z" fill="#F2ACA0"/>
<path d="M111.035 143.869C111.526 144.897 112.576 146.593 114.52 147.649C114.522 147.651 114.524 147.651 114.528 147.651C115.924 147.94 117.246 147.74 118.18 147.492C113.437 147.349 111.914 143.323 111.722 142.747L111.035 143.869Z" fill="#F2ACA0"/>
<path d="M116.093 136.038C116.651 135.524 117.762 134.798 119.346 135.18C119.346 135.18 119.019 135.773 119.348 136.82C119.348 136.82 117.548 135.817 116.203 136.232C116.086 136.268 116.003 136.121 116.093 136.038Z" fill="#E28569"/>
<path d="M115.842 135.87C115.778 135.356 115.552 134.645 114.797 134.398C114.797 134.398 114.763 134.923 114.346 135.186C114.346 135.186 115.159 135.361 115.617 135.968C115.695 136.07 115.858 136.002 115.842 135.87Z" fill="#E28569"/>
<path d="M90.675 109.588C90.675 109.588 84.9609 107.461 83.3616 108.465C81.7622 109.469 78.31 113.215 78.0477 110.718C77.8976 109.284 81.3447 105.472 82.1763 104.295C83.0079 103.118 83.277 101.65 84.6831 101.333C86.229 100.982 92.8592 106.904 92.8592 106.904C92.8592 106.904 92.226 107.509 91.6049 108.439C90.7061 109.778 90.675 109.588 90.675 109.588Z" fill="#2F1A31"/>
<path d="M132.065 136.803C127.747 136.804 118.087 132.036 109.045 126.289C100.936 121.134 93.3292 115.19 90.5291 111.194C89.1368 109.207 92.3269 105.948 93.8417 105.259C98.11 103.324 104.847 108.367 113.32 111.834C120.642 114.831 126.731 117.959 126.731 117.959L132.065 136.803Z" fill="#74A1BD"/>
<path d="M132.065 136.803C127.747 136.804 118.087 132.036 109.045 126.289L113.32 111.834C120.642 114.831 126.731 117.959 126.731 117.959L132.065 136.803Z" fill="#9BBCB6"/>
<path d="M75.7174 120.271C75.7174 120.271 69.7497 119.02 68.3177 120.25C66.8858 121.482 64.0322 125.701 63.399 123.271C63.0367 121.877 65.8765 117.592 66.5235 116.305C67.1704 115.018 67.217 113.525 68.5593 113.003C70.0361 112.426 77.4738 117.292 77.4738 117.292C77.4738 117.292 76.9389 117.985 76.4628 118.996C75.7778 120.454 75.7174 120.271 75.7174 120.271Z" fill="#2F1A31"/>
<path d="M76.5974 115.604C74.2545 116.434 72.1427 119.883 73.3901 121.622C78.4676 128.696 101.747 140.269 109.774 139.054L110.948 122.885C110.948 122.885 80.9658 114.058 76.5974 115.604Z" fill="#9BBCB6"/>
<path d="M128.557 13.1453C129.004 13.097 129.328 12.6932 129.28 12.2464L128.533 5.32287C128.484 4.87603 128.081 4.55167 127.634 4.59998C127.187 4.64829 126.863 5.052 126.911 5.49884L127.658 12.4224C127.706 12.8675 128.112 13.1936 128.557 13.1453Z" fill="#F7B686"/>
<path d="M126.483 13.3696C126.93 13.3213 127.254 12.9175 127.206 12.4707L126.371 4.72766C126.322 4.28081 125.919 3.95646 125.472 4.00477C125.025 4.05307 124.701 4.45679 124.749 4.90364L125.584 12.6467C125.632 13.0918 126.036 13.4179 126.483 13.3696Z" fill="#F7B686"/>
<path d="M126.357 17.4601L126.564 17.2565C126.95 16.8752 126.954 16.2472 126.573 15.8625L122.858 12.1049C122.477 11.7184 121.849 11.7149 121.464 12.0962L121.257 12.2998C120.871 12.6811 120.867 13.3091 121.248 13.6938L124.963 17.4515C125.344 17.8379 125.972 17.8414 126.357 17.4601Z" fill="#F7B686"/>
<path d="M124.405 13.5938C124.852 13.5455 125.176 13.1418 125.128 12.695L124.459 6.48742C124.41 6.04058 124.007 5.71622 123.56 5.76453C123.113 5.81284 122.788 6.21655 122.837 6.66339L123.506 12.8709C123.555 13.3161 123.96 13.6421 124.405 13.5938Z" fill="#F7B686"/>
<path d="M130.391 16.9374C130.391 16.9374 132.308 12.688 130.771 9.75334C130.24 8.73715 124.146 9.56528 123.709 10.773C123.273 11.9807 124.134 16.1282 124.134 16.1282L130.391 16.9374Z" fill="#F7B686"/>
<path d="M130.621 12.9296C131.066 12.8813 131.39 12.4776 131.343 12.0325L130.676 5.83872C130.628 5.3936 130.224 5.06925 129.779 5.11756C129.334 5.16587 129.009 5.56958 129.058 6.01471L129.725 12.2084C129.772 12.6518 130.175 12.9779 130.621 12.9296Z" fill="#F7B686"/>
<path d="M90.511 62.2586C90.511 62.2586 90.8302 55.2816 104.051 51.7379C114.235 49.0085 122.722 50.3197 127.02 58.5044C130.769 65.6453 131.978 72.2014 134.162 90.4496C134.162 90.4496 104.8 90.6842 97.1102 98.3514C97.1102 98.3514 97.4828 82.2287 91.0821 66.5494C90.4351 64.9587 90.3609 63.6405 90.511 62.2586Z" fill="#6F4975"/>
<path d="M71.4635 33.1343C76.0234 41.9108 96.3058 52.987 101.916 52.1882C103.122 52.0157 92.0581 68.8492 91.751 68.2712C90.219 65.3814 89.0424 64.2117 86.5787 62.3535C78.5113 56.2719 67.5265 48.1459 64.3105 39.4022L71.4635 33.1343Z" fill="#6F4975"/>
<path d="M106.375 50.7545C106.375 50.7545 124.715 39.309 123.585 18.3883C123.516 17.1151 124.551 16.054 125.826 16.0937L129.847 16.2162C130.581 16.2387 131.203 16.7597 131.352 17.4774C132.147 21.3058 133.922 33.8503 128.025 51.4187C127.42 53.2216 126.079 56.0856 128.319 61.17L106.375 50.7545Z" fill="#6F4975"/>
<path d="M97.1114 98.3513C97.4582 100.139 105.964 99.5228 116.257 97.4611C126.55 95.4011 134.51 92.2352 134.163 90.4478C133.817 88.6604 124.697 87.2009 114.404 89.2608C104.111 91.3208 96.7646 96.5639 97.1114 98.3513Z" fill="#2F1A31"/>
<path d="M120.271 125.766C123.186 116.077 115.54 105.537 115.637 99.0243C115.637 99.0243 115.474 92.8927 118.223 92.5562C127.234 91.4555 133.793 91.3192 133.793 91.3192C133.992 91.5746 145.903 110.618 137.867 132.526C133.583 144.201 119.422 128.583 120.271 125.766Z" fill="#9BBCB6"/>
<path d="M99.8059 124.933C105.184 116.363 97.3129 105.556 99.133 99.3021C99.133 99.3021 102.044 95.5927 112.928 92.8254C127.257 89.1833 133.797 91.3209 133.797 91.3209C133.911 91.597 129.227 113.175 117.844 131.446C116.905 132.954 116.017 134.665 114.983 136.113C107.759 146.236 98.2411 127.424 99.8059 124.933Z" fill="#9BBCB6"/>
<path d="M117.842 131.561C117.823 131.561 117.804 131.556 117.785 131.546C117.729 131.515 117.71 131.444 117.741 131.389C117.807 131.271 124.386 119.438 124.598 101.314C124.598 101.25 124.649 101.2 124.713 101.2H124.715C124.779 101.2 124.829 101.253 124.829 101.315C124.717 110.818 122.852 118.516 121.306 123.302C119.631 128.49 117.959 131.472 117.942 131.501C117.919 131.539 117.881 131.561 117.842 131.561Z" fill="#2F1A31"/>
<path d="M103.546 49.3155L103.227 45.7856L103.134 44.7574L102.585 38.7155L104.999 43.9551L106.448 47.1003L106.907 48.0958C107.218 48.7721 107.799 49.4587 108.555 49.8452C108.862 50.0022 110.686 50.2092 109.457 51.4911C107.929 53.087 103.919 53.2768 101.916 52.1864C101.926 52.1812 103.648 50.4559 103.546 49.3155Z" fill="#F7B686"/>
<path d="M106.025 34.9458C106.025 34.9458 106.898 36.1035 107.229 37.8684C107.56 39.6334 104.26 36.3191 104.26 36.3191L106.025 34.9458Z" fill="#56335B"/>
<path d="M106.243 46.2045C108.709 44.7878 109.324 41.2288 107.616 38.2553C105.908 35.2817 102.524 34.0197 100.057 35.4364C97.5911 36.8531 96.9765 40.4121 98.6846 43.3856C100.393 46.3592 103.777 47.6212 106.243 46.2045Z" fill="#F7B686"/>
<path d="M97.8946 41.7917L100.101 40.603C100.586 40.3425 100.938 39.8784 101.035 39.3367C101.202 38.4033 101.614 37.7891 103.797 36.9834C106.561 35.9637 107.689 33.6001 107.397 32.0543C107.099 30.4774 105.299 30.065 104.218 31.3228C103.136 32.5788 103.022 30.6378 101.633 30.9984C99.0367 31.673 99.3576 33.7571 97.3201 34.5249C94.6493 35.5307 90.7502 39.4816 94.9047 43.2013L97.8946 41.7917Z" fill="#2F1A31"/>
<path d="M103.306 40.477C103.325 40.4511 103.33 40.4166 103.32 40.3856C103.302 40.3304 103.244 40.301 103.188 40.3183C103.156 40.3286 102.384 40.496 102.336 41.4104C102.333 41.4673 102.376 41.5174 102.433 41.5225C102.49 41.526 102.528 41.4811 102.545 41.4259C102.711 40.8721 103.225 40.5271 103.251 40.5184C103.275 40.5098 103.294 40.496 103.306 40.477Z" fill="#060633"/>
<path d="M103.396 41.8882C103.548 42.0849 103.788 42.1557 103.931 42.0452C104.074 41.9348 104.067 41.6847 103.914 41.488C103.762 41.2913 103.522 41.2205 103.379 41.331C103.237 41.4414 103.244 41.6916 103.396 41.8882Z" fill="#060633"/>
<path d="M106.758 38.7208C106.779 38.707 106.791 38.6828 106.791 38.6518C106.789 38.5983 106.748 38.5465 106.699 38.5362C106.67 38.5293 106.004 38.3205 105.761 39.0537C105.745 39.1003 105.768 39.1607 105.814 39.19C105.861 39.2194 105.9 39.1987 105.926 39.1607C106.185 38.7777 106.68 38.7259 106.704 38.7294C106.725 38.7328 106.744 38.7294 106.758 38.7208Z" fill="#060633"/>
<path d="M106.285 40.0716C106.351 40.3114 106.546 40.4684 106.72 40.4201C106.894 40.3718 106.982 40.1389 106.917 39.8991C106.851 39.6593 106.656 39.5023 106.482 39.5506C106.308 39.5989 106.22 39.8318 106.285 40.0716Z" fill="#060633"/>
<path d="M94.9023 43.203C94.9023 43.203 97.9095 45.9824 100.27 45.3043C100.27 45.3043 97.366 43.4393 100.556 40.2596C100.554 40.2579 96.795 41.1568 94.9023 43.203Z" fill="#56335B"/>
<path d="M98.866 43.7862C99.475 43.8949 100.048 43.5412 100.144 42.996C100.241 42.4508 99.8252 41.9229 99.2162 41.8142C98.6072 41.7055 98.0344 42.0592 97.9378 42.6044C97.8412 43.1495 98.2569 43.6792 98.866 43.7862Z" fill="#F7B686"/>
<path d="M100.556 40.2579C100.556 40.2579 101.435 43.2668 102.246 43.5705C103.057 43.8741 107.027 42.5111 108.547 41.0688C109.341 42.908 108.709 45.0801 107.01 46.1377C106.447 46.4879 105.823 46.7467 105.159 46.8933C103.803 47.1935 102.357 47.1763 101.351 46.2188C101.046 45.9272 100.6 43.5394 100.6 43.5394C100.6 43.5394 100.243 42.1782 99.2168 41.8159C99.2168 41.8159 99.762 40.6806 100.556 40.2579Z" fill="#56335B"/>
<path d="M108.023 42.5007C108.023 42.5007 106.705 43.5135 105.018 44.0259C105.018 44.0259 105.875 45.4303 107.392 44.4537C108.275 43.8861 108.023 42.5007 108.023 42.5007Z" fill="white"/>
<path d="M103.449 31.2986C103 31.2986 102.796 30.919 102.793 30.9155L102.917 30.85C102.928 30.8707 103.192 31.3503 103.811 31.0725L103.868 31.2002C103.711 31.2709 103.571 31.2986 103.449 31.2986Z" fill="#2F1A31"/>
<path d="M104.252 35.9033L104.209 35.848C104.216 35.8429 104.861 35.3236 105.437 34.6196C105.965 33.9744 106.54 33.0358 106.283 32.2353C106.143 31.8005 105.957 31.5487 105.715 31.4693C105.325 31.3399 104.854 31.6781 104.437 31.9748C104.373 32.0214 104.311 32.0645 104.249 32.1076L104.209 32.049C104.269 32.0076 104.331 31.9627 104.395 31.9179C104.825 31.6108 105.313 31.2623 105.736 31.402C106.002 31.49 106.202 31.7557 106.348 32.2146C106.857 33.8001 104.357 35.817 104.252 35.9033Z" fill="white"/>
<path d="M69.4653 38.2169C67.1604 40.7876 65.0987 40.3891 64.3102 39.4005C63.5218 38.4119 64.55 36.2794 66.6083 34.637C68.6665 32.9945 70.6748 32.1457 71.4632 33.1343C72.2517 34.1229 71.2217 36.2553 69.4653 38.2169Z" fill="#2F1A31"/>
<path d="M71.2023 28.5969L70.9021 28.5193C70.3431 28.3761 69.7669 28.7159 69.6237 29.2749L69.3839 30.2066L66.9167 24.6909C66.7028 24.213 66.1007 23.823 65.5762 23.823C65.1293 23.823 64.8309 24.2837 65.0137 24.6909L66.6717 28.3968C66.5147 28.4226 66.3526 28.4571 66.1835 28.4968L64.0407 23.704C63.8561 23.2899 63.3903 23.0536 62.9589 23.1968C62.4655 23.3607 62.2309 23.9145 62.4379 24.3769L64.5151 29.0213C64.3633 29.08 64.2132 29.1403 64.0631 29.2042L62.3689 25.4155C62.1843 25.0014 61.7185 24.765 61.2872 24.9082C60.7937 25.0721 60.5591 25.626 60.7661 26.0883L62.5035 29.9719C62.3603 30.0565 62.2257 30.1393 62.098 30.2238L60.6574 27.0027C60.4625 26.568 59.9466 26.3713 59.5118 26.5662C59.0771 26.7612 58.8804 27.277 59.0753 27.7118L61.3941 32.8945C62.0791 34.8562 63.7267 36.4693 64.6445 37.2526C65.0879 37.6322 65.6901 37.7598 66.2525 37.6045C67.2652 37.3233 68.9146 36.5625 70.3949 34.4887C70.5829 34.2247 70.7261 33.9297 70.8193 33.6209L71.9597 29.8788C72.1029 29.3163 71.7613 28.7401 71.2023 28.5969Z" fill="#F7B686"/>
<path d="M100.712 31.3935C100.411 33.0998 99.5885 34.2212 98.6396 34.9596C98.6379 34.9631 98.6361 34.9631 98.6344 34.9631C97.6838 35.698 96.6124 36.05 95.817 36.2208H95.8153C95.12 36.3692 94.637 36.3761 94.637 36.3761L94.423 34.7284L94.3005 33.7813L93.9451 31.0433L93.8209 30.0857L93.4827 27.4788C93.4551 27.2683 93.6846 27.12 93.8658 27.2304L94.4834 27.6065L95.4012 28.1638L96.8125 29.0247L97.701 29.5647L98.9829 30.3462L99.9059 30.9052L100.712 31.3935Z" fill="#96A7E2"/>
<path d="M95.3987 28.162C95.5126 29.1351 95.2779 30.3928 93.9426 31.0432L93.8184 30.0857C94.2549 29.7872 94.486 29.3524 94.5223 28.7676C94.5602 28.1741 94.4809 27.6047 94.4809 27.6047L95.3987 28.162Z" fill="#B6C9FF"/>
<path d="M97.6993 29.5612C97.6424 30.8707 97.149 33.3517 94.4213 34.7284L94.2988 33.7813C96.8367 32.3251 96.8609 29.7579 96.8108 29.0229L97.6993 29.5612Z" fill="#B6C9FF"/>
<path d="M99.9034 30.9018C99.9034 31.8334 99.7239 33.4621 98.637 34.9596C98.6353 34.9631 98.6336 34.9631 98.6318 34.9631C97.6812 35.698 96.6098 36.05 95.8145 36.2208C99.3478 34.3333 99.0424 30.8328 98.9803 30.3428L99.9034 30.9018Z" fill="#B6C9FF"/>
<path d="M93.2495 27.1113C92.6422 26.9474 91.5381 26.837 90.4805 27.71C90.4805 27.71 90.9411 28.0171 91.0722 28.9039C91.0722 28.9039 92.0694 27.4977 93.2375 27.2924C93.3358 27.2769 93.3461 27.1372 93.2495 27.1113Z" fill="#96A7E2"/>
<path d="M93.3798 26.894C93.2418 26.4971 93.1555 25.8933 93.6369 25.4292C93.6369 25.4292 93.8525 25.7967 94.2632 25.8329C94.2632 25.8329 93.7111 26.266 93.5851 26.8784C93.5644 26.9854 93.416 26.9957 93.3798 26.894Z" fill="#96A7E2"/>
<path d="M161.347 49.3804C161.347 49.3804 161.885 47.4153 159.577 46.7476C157.269 46.0817 158.851 51.3782 153.111 50.8072C147.371 50.2378 149.306 52.6567 147.459 54.4147C145.611 56.1745 137.519 52.127 134.616 59.0764C131.712 66.0258 136.816 71.1275 146.843 71.4794C156.87 71.8314 152.911 77.3678 161.401 74.2916C169.891 71.2155 166.131 57.6928 163.745 55.5689C161.358 53.4486 161.347 49.3804 161.347 49.3804Z" fill="#436E8E"/>
<path d="M214.8 36.101C215.242 36.3891 215.838 36.2649 216.127 35.8232L220.602 28.9722C220.89 28.5305 220.766 27.9335 220.324 27.6454C219.882 27.3573 219.286 27.4815 218.997 27.9232L214.522 34.7743C214.234 35.2159 214.36 35.8129 214.8 36.101Z" fill="#F7B686"/>
<path d="M212.744 34.7587C213.186 35.0468 213.783 34.9226 214.071 34.4809L219.076 26.819C219.364 26.3773 219.24 25.7803 218.798 25.4922C218.357 25.2041 217.76 25.3283 217.472 25.77L212.467 33.4319C212.177 33.8736 212.303 34.4706 212.744 34.7587Z" fill="#F7B686"/>
<path d="M209.588 38.387L209.928 38.3559C210.563 38.2972 211.034 37.7279 210.973 37.093L210.394 30.9096C210.335 30.2747 209.766 29.8037 209.131 29.8641L208.791 29.8952C208.156 29.9538 207.685 30.5232 207.745 31.1581L208.325 37.3414C208.384 37.9746 208.953 38.4456 209.588 38.387Z" fill="#F7B686"/>
<path d="M210.692 33.4164C211.133 33.7046 211.73 33.5803 212.018 33.1387L216.031 26.9967C216.319 26.555 216.195 25.9581 215.754 25.67C215.312 25.3818 214.715 25.5061 214.427 25.9477L210.414 32.0897C210.124 32.5314 210.25 33.1283 210.692 33.4164Z" fill="#F7B686"/>
<path d="M213.644 40.9144C213.644 40.9144 218.551 38.4766 219.338 34.6655C219.61 33.3456 213.453 29.5621 212.157 30.335C210.862 31.108 208.557 35.5212 208.557 35.5212L213.644 40.9144Z" fill="#F7B686"/>
<path d="M216.835 37.4398C217.275 37.7279 217.872 37.602 218.159 37.162L222.163 31.0321C222.451 30.5922 222.325 29.9952 221.885 29.7088C221.445 29.4207 220.848 29.5466 220.562 29.9866L216.558 36.1165C216.27 36.5564 216.394 37.1534 216.835 37.4398Z" fill="#F7B686"/>
<path d="M207.98 34.0203C199.937 41.0646 187.832 50.5587 175.84 55.7881C173.061 56.9992 171.982 57.4219 170.266 57.8929C168.884 58.2725 167.981 61.1381 168.606 63.5087C169.191 65.7325 171.535 67.6925 172.296 67.5924C173.592 67.4216 175.567 66.6159 178.687 65.315C189.521 60.7983 201.145 52.7033 214.315 40.5384L207.98 34.0203Z" fill="#F7B686"/>
<path d="M168.691 179.754C168.691 179.754 168.769 182.842 170.858 183.714C172.948 184.585 179.002 185.372 176.74 187.356C175.442 188.494 169.324 187.759 167.597 187.759C165.87 187.759 164.249 188.512 162.965 187.356C161.554 186.084 162.965 179.754 162.965 179.754C162.965 179.754 164.456 180.531 165.796 180.496C167.727 180.444 168.691 179.754 168.691 179.754Z" fill="#2F1A31"/>
<path d="M144.693 179.752C144.693 179.752 144.771 182.841 146.86 183.712C148.95 184.583 155.003 185.37 152.742 187.354C151.444 188.493 145.326 187.758 143.599 187.758C141.872 187.758 140.251 188.51 138.967 187.354C137.556 186.082 138.967 179.752 138.967 179.752C138.967 179.752 140.458 180.529 141.798 180.494C143.729 180.444 144.693 179.752 144.693 179.752Z" fill="#2F1A31"/>
<path d="M184.219 95.1001C184.219 95.1001 184.07 109.332 182.925 134.443C182.028 154.13 182.212 172.375 180.487 181.024C179.869 184.117 157.044 182.541 157.287 179.135L162.691 118.312L163.722 99.0544L184.219 95.1001Z" fill="#E28569"/>
<path d="M146.48 106.477C146.669 108.05 155.565 107.859 166.457 106.48C177.348 105.102 185.826 102.741 185.636 101.168C185.447 99.5945 176.66 99.403 165.768 100.782C154.877 102.16 146.29 104.903 146.48 106.477Z" fill="#2F1A31"/>
<path d="M171.715 104.334L151.443 181.008C150.47 184.135 131.238 183.717 131.84 180.396L147.569 107.876C147.754 107.041 148.37 106.378 149.174 106.145C153.535 104.888 172.144 101.244 171.715 104.334Z" fill="#E28569"/>
<path d="M150.656 62.1302C150.656 62.1302 152.725 55.1739 163.746 55.5707C169.793 55.7881 176.156 54.0852 178.989 63.5621C181.732 72.7372 184.706 87.1173 185.638 101.168C185.638 101.168 167.59 97.2102 146.448 106.442C146.45 106.442 145.817 74.8178 150.656 62.1302Z" fill="#9BBCB6"/>
<path d="M142.805 61.1071L149.714 66.7815C149.714 66.7815 176.896 72.3835 180.262 68.141C184.256 63.1084 183.939 51.763 181.782 52.8724C181.782 52.8724 167.773 56.0866 164.234 55.1618C162.647 54.7477 161.498 55.2446 159.887 55.1946C145.965 54.7684 142.805 61.1071 142.805 61.1071Z" fill="#9BBCB6"/>
<path d="M160.137 148.886L159.756 148.796L165.946 122.411C167.106 118.885 169.481 115.953 172.64 114.144L172.835 114.484C169.761 116.245 167.447 119.099 166.322 122.516L160.137 148.886Z" fill="#020202"/>
<path d="M159.333 55.2273C160.544 55.0979 161.595 54.337 162.078 53.219L163.588 49.715L164.026 48.6971L166.6 42.7156L166.153 48.9145L165.884 52.6342L165.808 53.6952C165.746 54.5613 166.35 55.3256 167.204 55.4792L167.219 55.4826C167.678 56.2279 168.31 57.7427 166.419 58.3448C164.197 59.0522 160.603 57.3028 159.312 55.2307C159.321 55.2273 159.328 55.2273 159.333 55.2273Z" fill="#F7B686"/>
<path d="M163.581 49.6116C163.583 49.6461 163.585 49.6806 163.588 49.7134C163.737 51.7113 165.873 52.6446 165.873 52.6446L165.886 52.6343L166.156 48.9146C165.502 48.6748 164.572 48.4298 164.027 48.6972C163.74 48.8369 163.562 49.1182 163.581 49.6116Z" fill="#2F1A31"/>
<path d="M166.881 50.8917C170.097 50.8917 172.704 47.6752 172.704 43.7076C172.704 39.74 170.097 36.5236 166.881 36.5236C163.666 36.5236 161.059 39.74 161.059 43.7076C161.059 47.6752 163.666 50.8917 166.881 50.8917Z" fill="#F7B686"/>
<path d="M170.019 48.3572C170.019 48.3572 168.029 48.4038 166.04 47.7051C166.04 47.7051 165.874 49.665 168.029 49.7978C169.282 49.872 170.019 48.3572 170.019 48.3572Z" fill="white"/>
<path d="M167.444 43.7767C167.482 43.7663 167.517 43.7387 167.532 43.6973C167.56 43.63 167.527 43.5524 167.458 43.5248C167.419 43.5092 166.527 43.0503 165.743 43.9078C165.693 43.9613 165.695 44.0441 165.748 44.0958C165.802 44.1459 165.874 44.1321 165.937 44.0907C166.546 43.6818 167.327 43.7594 167.36 43.7715C167.389 43.7836 167.419 43.7836 167.444 43.7767Z" fill="#060633"/>
<path d="M166.397 45.2327C166.387 45.5484 166.564 45.8107 166.794 45.8176C167.023 45.8245 167.216 45.5743 167.227 45.2586C167.237 44.9429 167.059 44.6806 166.83 44.6737C166.6 44.6668 166.407 44.917 166.397 45.2327Z" fill="#060633"/>
<path d="M172.175 44.4667C172.215 44.4719 172.256 44.4581 172.287 44.4271C172.339 44.3753 172.337 44.2908 172.285 44.2407C172.254 44.2114 171.606 43.4471 170.555 43.9405C170.489 43.9716 170.458 44.0492 170.488 44.1148C170.517 44.1821 170.591 44.1959 170.662 44.1821C171.38 44.0354 172.075 44.4046 172.101 44.4288C172.121 44.4512 172.147 44.4633 172.175 44.4667Z" fill="#060633"/>
<path d="M170.651 45.414C170.522 45.7021 170.585 46.0126 170.794 46.1058C171.003 46.2007 171.277 46.042 171.408 45.7538C171.538 45.4657 171.474 45.1552 171.265 45.062C171.055 44.9688 170.78 45.1258 170.651 45.414Z" fill="#060633"/>
<path d="M155.238 104.77C155.238 104.77 176.975 100.618 184.024 102.577L180.645 107.586L168.081 108.297L155.238 104.77Z" fill="#E28569"/>
<path d="M164.538 39.1219C164.746 40.4227 167.545 41.3458 169.67 41.4562C172.322 41.5959 172.118 44.9654 173.076 43.7077C174.034 42.4499 175.286 38.3766 173.076 35.8922C170.866 33.4078 163.932 32.8764 162.769 34.8984C161.059 37.8797 164.36 38.0091 164.538 39.1219Z" fill="#436E8E"/>
<path d="M162.655 36.2632C162.655 36.2632 164.417 36.7014 164.339 37.4898C164.262 38.2783 165.502 39.7655 164.334 40.2623C163.166 40.7592 162.89 41.0577 162.895 41.929C162.899 42.5363 161.836 43.8768 161.455 45.0966C161.289 45.6262 161.606 46.7494 161.606 46.7494C161.606 46.7494 157.159 45.2467 157.952 40.1692C158.47 36.8636 161.543 35.8146 162.655 36.2632Z" fill="#436E8E"/>
<path d="M161.168 44.7911C161.827 45.4209 162.75 45.4847 163.228 44.9361C163.706 44.3857 163.559 43.4299 162.9 42.8002C162.241 42.1704 161.318 42.1066 160.84 42.6552C160.361 43.2039 160.509 44.1614 161.168 44.7911Z" fill="#F7B686"/>
<path d="M154.509 68.5219C155.042 67.6798 152.854 65.3378 149.621 63.291C146.388 61.2441 143.334 60.2674 142.801 61.1095C142.268 61.9516 144.457 64.2936 147.69 66.3404C150.923 68.3873 153.976 69.364 154.509 68.5219Z" fill="#060633"/>
<path d="M168.271 86.3858C162.467 89.4602 151.127 87.3692 149.067 84.2396C146.67 80.5992 148.716 75.0611 151.254 71.2379C152.553 69.2814 152.693 67.3819 150.642 64.9907C149.789 63.9969 148.954 63.3068 146.232 62.1698C144.917 61.6212 143.608 61.4452 142.871 62.3907C141.719 63.871 140.896 65.0856 139.298 68.0392C135.502 75.0559 134.688 81.8863 136.406 87.1501C138.818 94.5377 148.545 104.277 171.564 96.1767C172.654 95.792 169.219 85.882 168.271 86.3858Z" fill="#F7B686"/>
<path d="M174.375 81.1494H174.062V87.4467H174.375V81.1494Z" fill="#2F1A31"/>
<path d="M177.327 66.702L177.734 78.6599C177.734 80.4404 176.292 81.8965 174.532 81.8965H173.909C172.148 81.8965 170.707 80.4404 170.707 78.6599C170.707 78.6599 171.359 66.7262 171.361 66.702C171.361 66.702 177.327 66.6779 177.327 66.702Z" fill="#2F1A31"/>
<path d="M176.915 74.5555L177.326 78.3218C177.326 79.8953 176.051 81.1841 174.495 81.1841H173.944C172.388 81.1841 171.113 79.897 171.113 78.3218L171.496 74.5555H176.915Z" fill="#E28569"/>
<path d="M174.22 74.7591C175.725 74.7591 176.945 74.6679 176.945 74.5555C176.945 74.4431 175.725 74.3519 174.22 74.3519C172.716 74.3519 171.496 74.4431 171.496 74.5555C171.496 74.6679 172.716 74.7591 174.22 74.7591Z" fill="#FCBF95"/>
<path d="M174.22 88.0368C175.635 88.0368 176.782 87.8591 176.782 87.64C176.782 87.4208 175.635 87.2432 174.22 87.2432C172.805 87.2432 171.658 87.4208 171.658 87.64C171.658 87.8591 172.805 88.0368 174.22 88.0368Z" fill="#2F1A31"/>
<path d="M177.326 66.6916C177.326 66.9987 175.99 67.2472 174.345 67.2472C172.699 67.2472 171.363 66.9987 171.363 66.6916C171.363 66.3845 172.699 66.1361 174.345 66.1361C175.99 66.1361 177.326 66.3845 177.326 66.6916Z" fill="#5B3560"/>
<path d="M172.133 72.3264C172.128 72.3264 172.123 72.3264 172.117 72.3264C172.017 72.3178 171.943 72.2315 171.952 72.1315L172.268 68.2082C172.276 68.1081 172.362 68.0357 172.463 68.0426C172.563 68.0512 172.637 68.1375 172.628 68.2375L172.312 72.1608C172.306 72.254 172.226 72.3264 172.133 72.3264Z" fill="#CCDDDB"/>
<path d="M168.271 86.3857C168.271 86.3857 169.182 81.4394 171.7 79.9108C174.217 78.3839 178.587 78.3356 177.227 79.614C175.868 80.8924 173.68 82.0449 173.68 82.0449C173.68 82.0449 178.471 79.8003 178.511 81.1478C178.551 82.4952 174.365 84.4068 174.365 84.4068C174.365 84.4068 180.279 82.1898 179.903 83.4752C179.529 84.7605 175.024 86.4116 175.024 86.4116C175.024 86.4116 180.609 84.569 180.138 86.0527C179.667 87.5348 175.512 87.5451 175.552 88.8925C175.592 90.24 175.293 95.6073 171.562 96.1749L168.271 86.3857Z" fill="#F7B686"/>
<path d="M171.944 83.5666C171.924 83.5666 171.903 83.5632 171.88 83.5563C171.77 83.5218 171.71 83.4045 171.744 83.294C172.053 82.321 173.556 81.8638 173.619 81.8448C173.73 81.812 173.845 81.8741 173.88 81.9863C173.914 82.0984 173.851 82.2123 173.74 82.2468C173.726 82.2502 172.384 82.6609 172.143 83.4217C172.115 83.5097 172.032 83.5666 171.944 83.5666Z" fill="#E08B65"/>
<path d="M172.29 86.1839C172.256 86.1839 172.221 86.1752 172.19 86.158C172.088 86.1028 172.052 85.9751 172.109 85.8733C172.792 84.638 174.248 84.2222 174.309 84.205C174.419 84.1739 174.535 84.2395 174.566 84.3499C174.597 84.4603 174.531 84.5759 174.421 84.607C174.407 84.6104 173.07 84.9952 172.475 86.0734C172.435 86.1459 172.364 86.1839 172.29 86.1839Z" fill="#E08B65"/>
<path d="M173.078 88.0955C173.063 88.0955 173.047 88.0937 173.031 88.0903C172.919 88.0644 172.849 87.9523 172.874 87.8401C173.116 86.7722 174.891 86.2356 174.966 86.2132C175.076 86.1804 175.192 86.2443 175.224 86.3547C175.257 86.4651 175.193 86.5807 175.083 86.6135C174.634 86.7463 173.435 87.2432 173.28 87.9316C173.259 88.0299 173.173 88.0955 173.078 88.0955Z" fill="#E08B65"/>
<path d="M169.01 34.0219C167.879 35.9818 166.364 36.9928 164.868 37.4742C164.864 37.4776 164.863 37.4776 164.859 37.4776C163.363 37.9555 161.888 37.9072 160.834 37.7606H160.831C159.909 37.6312 159.312 37.4224 159.312 37.4224L159.787 35.3038L160.061 34.084L160.85 30.561L161.127 29.3292L161.88 25.9752C161.94 25.7044 162.289 25.6233 162.461 25.8407L163.051 26.5791L163.929 27.6746L165.279 29.3637L166.129 30.4247L167.354 31.9585L168.237 33.0592L169.01 34.0219Z" fill="#E28569"/>
<path d="M163.933 27.6712C163.638 28.9169 162.786 30.3575 160.854 30.5576L161.131 29.3258C161.802 29.155 162.279 28.7237 162.586 28.0215C162.898 27.3089 163.055 26.5757 163.055 26.5757L163.933 27.6712Z" fill="#FFA28D"/>
<path d="M166.131 30.4214C165.474 32.0052 163.759 34.8312 159.789 35.3005L160.063 34.0807C163.831 33.4286 165.011 30.2851 165.281 29.3604L166.131 30.4214Z" fill="#FFA28D"/>
<path d="M168.239 33.0558C167.821 34.2014 166.872 36.1199 164.866 37.4742C164.862 37.4777 164.861 37.4777 164.857 37.4777C163.361 37.9556 161.886 37.9073 160.832 37.7606C166.018 37.0239 167.21 32.5882 167.354 31.9568L168.239 33.0558Z" fill="#FFA28D"/>
<path d="M161.763 25.418C161.09 24.9435 159.784 24.3155 158.092 24.9142C158.092 24.9142 158.521 25.4991 158.285 26.6464C158.285 26.6464 160.14 25.3662 161.665 25.6371C161.796 25.6595 161.872 25.4939 161.763 25.418Z" fill="#E28569"/>
<path d="M162.02 25.2093C162.028 24.6589 162.194 23.8808 162.991 23.5254C162.991 23.5254 163.091 24.074 163.581 24.3018C163.581 24.3018 162.71 24.5864 162.28 25.2817C162.204 25.4042 162.018 25.3507 162.02 25.2093Z" fill="#E28569"/>
<path d="M178.786 133.443C178.786 133.443 171.837 138.062 168.764 139.544C165.691 141.026 156.651 142.704 160.217 145.504C162.263 147.111 171.403 145.503 174.002 145.359C176.6 145.218 179.1 146.217 180.936 144.373C182.956 142.344 185.816 133.474 185.816 133.474L178.786 133.443Z" fill="#2F1A31"/>
<path d="M222.788 104.279C222.788 104.279 208.056 109.712 192.18 119.908C185.47 124.218 181.004 127.196 178.083 129.197C175.666 130.853 175.811 134.47 178.352 135.929L182.705 138.431C184.258 139.323 186.107 139.545 187.825 139.045L224.541 128.369L222.788 104.279Z" fill="#355E77"/>
<path d="M207.124 47.0964C214.516 55.3985 226.278 66.7335 237.979 73.6709C240.689 75.2788 241.748 75.8516 243.458 76.559C244.835 77.1283 245.397 80.201 244.45 82.5664C243.56 84.7868 241.26 86.117 239.481 85.746C238.153 85.4683 236.867 84.8765 233.817 83.134C223.219 77.0817 212.265 67.2356 200.242 52.99L207.124 47.0964Z" fill="#F7B686"/>
<path d="M199.212 50.1347C198.769 50.4797 198.124 50.4004 197.779 49.957L192.974 43.7857C192.629 43.3423 192.708 42.697 193.151 42.352C193.595 42.0069 194.24 42.0863 194.585 42.5297L199.39 48.701C199.737 49.1426 199.656 49.7879 199.212 50.1347Z" fill="#F7B686"/>
<path d="M201.261 48.5284C200.816 48.8752 200.17 48.7941 199.824 48.349L194.453 41.4514C194.106 41.0062 194.187 40.361 194.632 40.0142C195.077 39.6674 195.723 39.7485 196.07 40.1936L201.44 47.0913C201.785 47.5347 201.704 48.1816 201.261 48.5284Z" fill="#F7B686"/>
<path d="M203.331 46.917C202.886 47.2638 202.241 47.1827 201.894 46.7376L195.887 39.0239C195.54 38.5787 195.621 37.9335 196.066 37.5867C196.511 37.2399 197.156 37.321 197.503 37.7661L203.511 45.4798C203.856 45.925 203.775 46.5719 203.331 46.917Z" fill="#F7B686"/>
<path d="M207.012 50.4987L206.648 50.4953C205.967 50.4884 205.416 49.9259 205.423 49.2444L205.492 42.6108C205.499 41.9293 206.062 41.3789 206.743 41.3858L207.107 41.3893C207.789 41.3962 208.339 41.9586 208.332 42.6401L208.263 49.2738C208.256 49.9553 207.694 50.5056 207.012 50.4987Z" fill="#F7B686"/>
<path d="M205.4 45.3073C204.954 45.6541 204.309 45.573 203.962 45.1279L199.147 38.9445C198.8 38.4994 198.881 37.8541 199.327 37.5074C199.772 37.1606 200.417 37.2417 200.764 37.6868L205.579 43.8702C205.924 44.3136 205.843 44.9606 205.4 45.3073Z" fill="#F7B686"/>
<path d="M200.621 53.4523C200.621 53.4523 196.346 48.8389 196.302 47.4C196.259 45.9612 202.115 41.4444 203.562 42.1535C205.01 42.8626 207.969 47.35 207.969 47.35L200.621 53.4523Z" fill="#F7B686"/>
<path d="M204.485 50.9317C204.516 50.9317 204.547 50.9214 204.571 50.8989C204.624 50.8506 204.63 50.7696 204.581 50.7161C204.547 50.6764 203.729 49.7361 204.324 48.6906C204.98 47.5398 205.256 45.8404 205.266 45.768C205.277 45.6972 205.228 45.63 205.157 45.6196C205.087 45.6092 205.019 45.6558 205.009 45.7283C205.006 45.7455 204.73 47.4536 204.096 48.5629C203.406 49.7741 204.376 50.88 204.385 50.8903C204.414 50.9179 204.448 50.9317 204.485 50.9317Z" fill="#E08B65"/>
<path d="M199.899 140.874C199.899 140.874 200.035 145.525 196.964 147.007C193.893 148.489 184.851 150.168 188.417 152.968C190.463 154.574 199.604 152.966 202.202 152.823C204.8 152.681 207.3 153.68 209.136 151.836C211.156 149.807 208.512 140.403 208.512 140.403C208.512 140.403 206.334 141.693 204.314 141.75C201.405 141.835 199.899 140.874 199.899 140.874Z" fill="#2F1A31"/>
<path d="M266.534 135.191C266.314 136.997 256.104 136.776 243.605 135.194C231.103 133.612 221.373 130.903 221.592 129.099C221.811 127.294 231.895 127.073 244.397 128.655C256.894 130.237 266.751 133.384 266.534 135.191Z" fill="#2F1A31"/>
<path d="M262.359 85.8306C262.359 85.8306 258.794 77.0351 246.158 76.2932C226.882 75.1615 223.958 93.3717 221.591 129.099C221.591 129.099 243.869 129.035 268.135 139.632C268.135 139.632 284.163 118.231 262.359 85.8306Z" fill="#96A7E2"/>
<path d="M270.014 82.9028L262.281 90.965C262.281 90.965 236.271 90.6303 231.383 86.7933C223.512 80.6151 234.49 70.5757 234.49 70.5757C234.49 70.5757 238.926 72.8323 250.628 74.9078C263.114 77.1248 270.014 82.9028 270.014 82.9028Z" fill="#96A7E2"/>
<path d="M257.506 93.0665C256.605 91.9571 258.674 88.7839 262.127 85.9789C265.58 83.1739 269.11 81.7993 270.011 82.9087C270.912 84.0181 268.843 87.1914 265.39 89.9964C261.937 92.8013 258.407 94.1759 257.506 93.0665Z" fill="#060633"/>
<path d="M269.253 134.223C269.668 126.307 264.16 121.247 257.075 117.693C245.583 111.931 230.635 104.947 221.591 104.279C209.255 103.37 198.365 130.467 197.634 142.559C197.465 145.359 208.324 148.399 211.148 145.893C214.005 143.356 224.02 130.382 224.02 130.382C224.02 130.382 237.721 147.78 249.827 147.78C259.273 147.78 268.643 145.91 269.253 134.223Z" fill="#436E8E"/>
<path d="M270.185 114.351C274.147 112.626 276.243 108.326 276.433 104.256C276.678 99.0168 276.051 95.009 272.908 89.5071C270.877 85.9531 269.808 84.3675 269.475 84.2105C267.653 83.3513 264.825 84.961 263.774 85.6753C262.299 86.6759 258.988 89.3864 260.224 91.6948C260.236 91.7189 260.786 93.1319 262.284 95.7923C264.047 98.9237 264.25 101.339 263.617 101.998C262.775 102.875 258.719 102.478 254.87 99.8295C250.802 97.0293 247.636 93.5305 247.603 93.4942L240.856 101.111C241.018 101.292 243.156 105.06 247.702 109.57C251.126 112.967 261.863 117.974 270.185 114.351Z" fill="#F7B686"/>
<path d="M253.233 73.7951L253.374 69.839L253.421 68.5623L253.688 61.0557L251.094 67.7376L249.537 71.7489L249.094 72.8928C248.732 73.8261 247.722 74.3247 246.758 74.0642L246.741 74.0591C245.895 74.6094 245.992 76.6297 247.238 77.375C249.546 78.7553 252.629 77.4009 254.996 75.8758C254.987 75.8706 253.183 75.1995 253.233 73.7951Z" fill="#F7B686"/>
<path d="M253.432 69.7338C253.415 69.7683 253.394 69.8028 253.375 69.8373C252.235 71.8473 249.545 71.7662 249.545 71.7662L249.537 71.7489L251.093 67.7377C251.892 67.8101 252.984 68.0137 253.42 68.5623C253.648 68.8487 253.696 69.2283 253.432 69.7338Z" fill="#2F1A31"/>
<path d="M249.351 69.4346C245.997 67.8466 244.867 63.2055 246.826 59.0683C248.786 54.9312 253.092 52.8648 256.446 54.4528C259.799 56.0409 260.929 60.682 258.97 64.8191C257.011 68.9563 252.704 71.0227 249.351 69.4346Z" fill="#F7B686"/>
<path d="M246.821 68.5485C246.886 68.5485 246.942 68.5002 246.95 68.4329C246.959 68.3622 246.907 68.2966 246.836 68.2897C246.817 68.288 244.894 68.0534 243.855 66.5507C243.527 66.0762 243.42 65.6725 243.536 65.3498C243.695 64.9047 244.238 64.746 244.243 64.7443C244.312 64.7253 244.352 64.6528 244.333 64.5838C244.314 64.5148 244.242 64.4751 244.173 64.4941C244.145 64.501 243.498 64.6891 243.291 65.2601C243.144 65.6673 243.262 66.1504 243.639 66.6973C244.747 68.3001 246.723 68.5364 246.805 68.5468C246.812 68.5485 246.816 68.5485 246.821 68.5485Z" fill="#E28569"/>
<path d="M257.267 57.5257C256.406 58.7783 256.256 59.9946 251.608 59.0319C251.608 59.0319 250.708 59.1596 251.018 58.4039C251.329 57.6482 252.908 57.015 252.751 55.8953C252.751 55.8953 246.823 60.6761 246.446 58.8904C246.069 57.1065 246.776 52.2412 250.306 50.742C253.836 49.2427 261.33 52.1118 261.543 54.7946C261.855 58.7472 258.004 56.4543 257.267 57.5257Z" fill="#2F1A31"/>
<path d="M260.987 56.2732C260.987 56.2732 258.934 55.8609 258.626 56.7201C258.319 57.5793 256.29 58.5178 257.263 59.6133C258.235 60.7072 258.376 61.1557 257.942 62.0615C257.638 62.693 258.085 64.6167 257.879 66.0745C257.79 66.7094 256.906 67.7239 256.906 67.7239C256.906 67.7239 262.286 68.3536 263.964 62.6671C265.055 58.9664 262.37 56.356 260.987 56.2732Z" fill="#2F1A31"/>
<path d="M258.328 65.9003C257.329 66.2315 256.335 65.8433 256.109 65.0342C255.881 64.225 256.508 63.3003 257.507 62.969C258.505 62.6378 259.499 63.026 259.725 63.8351C259.951 64.6443 259.327 65.569 258.328 65.9003Z" fill="#F7B686"/>
<path d="M256.827 71.4176C257.638 71.4176 258.516 70.7569 258.789 69.896C259.292 68.307 258.559 66.7163 258.528 66.649C258.495 66.5783 258.411 66.5472 258.34 66.58C258.269 66.6128 258.238 66.6973 258.271 66.768C258.278 66.7836 258.987 68.3277 258.518 69.8097C258.264 70.6102 257.374 71.2348 256.648 71.1192C255.942 71.0053 255.561 70.2393 255.574 68.9609C255.59 67.6031 255.995 66.5748 256.749 65.983C257.312 65.5414 257.867 65.4948 257.872 65.4948C257.95 65.4896 258.009 65.4206 258.004 65.343C257.998 65.2653 257.931 65.2049 257.852 65.2118C257.826 65.2136 255.329 65.4413 255.29 68.9591C255.283 69.6285 255.395 71.2072 256.601 71.4004C256.677 71.4125 256.751 71.4176 256.827 71.4176Z" fill="#E28569"/>
<path d="M264.69 57.5481C264.735 57.5584 264.785 57.5498 264.824 57.5222C264.902 57.4687 264.923 57.3617 264.867 57.2824C263.841 55.7969 262.298 56.0333 262.235 56.0436C262.141 56.0592 262.078 56.1472 262.093 56.2403C262.109 56.3335 262.197 56.3973 262.29 56.3818C262.347 56.3732 263.686 56.1748 264.584 57.4756C264.612 57.5153 264.648 57.5394 264.69 57.5481Z" fill="#2F1A31"/>
<path d="M262.125 55.6366C262.201 55.6538 262.282 55.6176 262.317 55.5434C262.339 55.4985 262.848 54.4306 262.548 53.7922C262.507 53.706 262.405 53.6697 262.319 53.7094C262.232 53.7491 262.196 53.8526 262.236 53.9389C262.427 54.3461 262.134 55.1276 262.006 55.3933C261.965 55.4795 262.001 55.5813 262.086 55.6227C262.099 55.6296 262.112 55.6348 262.125 55.6366Z" fill="#2F1A31"/>
<path d="M248.089 66.1002C248.089 66.1002 250.075 66.9059 252.346 66.9611C252.346 66.9611 251.764 68.9987 249.544 68.3086C248.253 67.9066 248.089 66.1002 248.089 66.1002Z" fill="#DB6B49"/>
<path d="M248.089 66.1002C248.089 66.1002 248.422 66.6868 249.554 67.1095C250.686 67.5322 252.346 66.9611 252.346 66.9611C252.346 66.9611 249.68 66.7092 248.089 66.1002Z" fill="white"/>
<path d="M253.043 62.6427C253.008 62.6169 252.984 62.5772 252.984 62.5306C252.983 62.4512 253.045 62.3874 253.124 62.3857C253.171 62.3839 254.244 62.2632 254.706 63.426C254.735 63.4985 254.703 63.583 254.63 63.6123C254.558 63.6434 254.489 63.6003 254.444 63.5364C253.987 62.8929 253.169 62.6704 253.131 62.6721C253.096 62.6704 253.067 62.66 253.043 62.6427Z" fill="#060633"/>
<path d="M247.456 61.3058C247.413 61.2989 247.375 61.273 247.353 61.2316C247.317 61.1626 247.343 61.0763 247.413 61.0383C247.455 61.0176 248.36 60.4293 249.292 61.2609C249.351 61.3127 249.359 61.4024 249.308 61.4628C249.256 61.5232 249.177 61.5145 249.106 61.4783C248.409 61.1056 247.579 61.273 247.544 61.292C247.517 61.3058 247.486 61.311 247.456 61.3058Z" fill="#060633"/>
<path d="M246.013 66.2572C246.323 66.3745 246.66 66.4039 247.01 66.3331C248.57 66.026 249.943 63.8384 250.071 61.4575C250.148 59.9979 249.743 58.7316 248.984 58.0742C248.53 57.6826 247.985 57.5273 247.402 57.6481C245.844 57.95 244.472 60.1359 244.343 62.5203C244.263 63.9833 244.669 65.2496 245.428 65.9087C245.611 66.0605 245.806 66.1778 246.013 66.2572ZM249.789 61.4454C249.669 63.7038 248.397 65.7758 246.953 66.0605C246.467 66.1571 246.002 66.0243 245.613 65.6948C244.919 65.0909 244.55 63.9074 244.624 62.5323C244.745 60.2705 246.016 58.1984 247.459 57.9155C247.947 57.8206 248.409 57.9483 248.801 58.2812C249.496 58.8885 249.865 60.0686 249.789 61.4454Z" fill="#6F4975"/>
<g opacity="0.3">
<path opacity="0.3" d="M252.946 66.8557C251.463 66.3169 250.903 64.11 251.697 61.9266C252.49 59.7432 254.335 58.41 255.819 58.9489C257.302 59.4877 257.861 61.6946 257.067 63.878C256.274 66.0614 254.429 67.3946 252.946 66.8557Z" fill="white"/>
</g>
<g opacity="0.3">
<path opacity="0.3" d="M245.963 66.0914C244.615 65.6335 244.132 63.4629 244.886 61.2434C245.639 59.0239 247.344 57.5958 248.692 58.0538C250.041 58.5118 250.524 60.6823 249.77 62.9019C249.017 65.1214 247.312 66.5494 245.963 66.0914Z" fill="white"/>
</g>
<path d="M252.737 66.8507C253.053 66.9697 253.394 67.018 253.755 66.987C255.571 66.8507 257.311 64.7838 257.633 62.377C257.823 60.983 257.511 59.7339 256.777 58.9558C256.263 58.4158 255.609 58.1639 254.878 58.2191C253.063 58.3589 251.324 60.4275 250.999 62.8291C250.81 64.2283 251.124 65.4774 251.86 66.2572C252.119 66.5263 252.414 66.7282 252.737 66.8507ZM255.794 58.6159C256.082 58.7246 256.346 58.9023 256.574 59.1439C257.24 59.853 257.533 61.0469 257.357 62.3408C257.05 64.6182 255.425 66.5781 253.734 66.7092C253.094 66.7523 252.514 66.528 252.064 66.0639C251.396 65.3583 251.101 64.1593 251.276 62.8618C251.584 60.5845 253.21 58.6246 254.899 58.4934C255.214 58.471 255.516 58.5124 255.794 58.6159Z" fill="#6F4975"/>
<path d="M249.491 62.3202C249.546 62.3409 249.608 62.3426 249.667 62.3219C249.701 62.3099 250.521 62.0545 251.532 62.6756C251.652 62.7429 251.815 62.7136 251.891 62.5911C251.966 62.4686 251.929 62.3081 251.806 62.2357C250.593 61.461 249.544 61.8147 249.498 61.8268C249.363 61.8751 249.289 62.0235 249.337 62.158C249.363 62.2374 249.422 62.2943 249.491 62.3202Z" fill="#6F4975"/>
<path d="M248.817 63.4674C248.855 63.4847 248.9 63.4829 248.939 63.4622C249.005 63.426 249.029 63.3415 248.993 63.2759C248.97 63.238 248.553 62.289 247.366 62.4685C247.292 62.4806 247.238 62.5478 247.249 62.622C247.259 62.6962 247.326 62.7342 247.402 62.7393C248.156 62.8066 248.736 63.376 248.755 63.4087C248.769 63.4363 248.791 63.4571 248.817 63.4674Z" fill="#060633"/>
<path d="M252.179 64.3956C252.139 64.3836 252.106 64.3525 252.091 64.3111C252.066 64.2404 252.103 64.1627 252.175 64.1369C252.217 64.1213 253.159 63.69 253.928 64.6113C253.976 64.67 253.971 64.7545 253.914 64.8045C253.857 64.8546 253.781 64.8356 253.721 64.7907C253.112 64.3404 252.301 64.3836 252.265 64.3956C252.237 64.406 252.206 64.4043 252.179 64.3956Z" fill="#060633"/>
<path d="M224.02 130.593C224.083 130.593 224.145 130.565 224.186 130.512C225.501 128.828 226.241 126.551 226.631 124.937C227.052 123.195 227.167 121.825 227.167 121.811C227.176 121.696 227.09 121.594 226.974 121.585C226.86 121.575 226.757 121.663 226.748 121.778C226.745 121.832 226.286 127.141 223.853 130.255C223.781 130.346 223.798 130.479 223.889 130.55C223.929 130.577 223.974 130.593 224.02 130.593Z" fill="#2F1A31"/>
<path d="M234.336 89.6193H234.648V95.9165H234.336V89.6193Z" fill="#2F1A31"/>
<path d="M231.384 75.1718L230.977 87.1297C230.977 88.9102 232.419 90.3663 234.179 90.3663H234.802C236.563 90.3663 238.004 88.9102 238.004 87.1297C238.004 87.1297 237.352 75.196 237.35 75.1718C237.35 75.1718 231.384 75.1494 231.384 75.1718Z" fill="#2F1A31"/>
<path d="M231.796 83.027L231.385 86.7932C231.385 88.3667 232.66 89.6555 234.216 89.6555H234.766C236.323 89.6555 237.598 88.3684 237.598 86.7932L237.215 83.027H231.796Z" fill="#E28569"/>
<path d="M234.491 83.2306C232.986 83.2306 231.766 83.1395 231.766 83.0271C231.766 82.9146 232.986 82.8235 234.491 82.8235C235.995 82.8235 237.215 82.9146 237.215 83.0271C237.215 83.1395 235.995 83.2306 234.491 83.2306Z" fill="#FCBF95"/>
<path d="M231.929 96.1098C231.929 96.3289 233.076 96.5067 234.491 96.5067C235.905 96.5067 237.053 96.3289 237.053 96.1098C237.053 95.8907 235.905 95.713 234.491 95.713C233.076 95.713 231.929 95.8907 231.929 96.1098Z" fill="#2F1A31"/>
<path d="M231.385 75.1615C231.385 75.4686 232.72 75.717 234.366 75.717C236.012 75.717 237.348 75.4686 237.348 75.1615C237.348 74.8544 236.012 74.606 234.366 74.606C232.719 74.606 231.385 74.8544 231.385 75.1615Z" fill="#5B3560"/>
<path d="M236.578 80.798C236.583 80.798 236.588 80.798 236.593 80.798C236.694 80.7894 236.768 80.7031 236.759 80.603L236.443 76.6797C236.435 76.5797 236.348 76.5038 236.248 76.5141C236.148 76.5228 236.074 76.609 236.083 76.7091L236.398 80.6324C236.405 80.7255 236.485 80.798 236.578 80.798Z" fill="#CCDDDB"/>
<path d="M247.473 93.439C247.473 93.439 243.163 88.4185 239.292 88.3494C235.42 88.2787 230.421 91.1168 232.812 91.6706C235.203 92.2244 238.453 92.0864 238.453 92.0864C238.453 92.0864 231.523 92.7058 232.37 94.2637C233.217 95.8216 239.238 95.2247 239.238 95.2247C239.238 95.2247 231.05 96.6187 232.327 97.8315C233.604 99.0444 239.816 97.942 239.816 97.942C239.816 97.942 232.249 99.543 233.766 100.918C235.282 102.291 240.01 99.5534 240.857 101.111C241.704 102.669 245.594 108.571 250.213 106.746L247.473 93.439Z" fill="#F7B686"/>
<path d="M241.296 92.7041C241.37 92.7041 241.446 92.673 241.499 92.6144C241.601 92.5022 241.592 92.328 241.48 92.2262C240.487 91.3239 238.473 91.8 238.389 91.819C238.242 91.8552 238.15 92.0036 238.187 92.1503C238.223 92.2986 238.371 92.3883 238.518 92.3521C238.535 92.3469 240.333 91.9242 241.111 92.6316C241.163 92.6799 241.23 92.7041 241.296 92.7041Z" fill="#E08B65"/>
<path d="M242.633 95.9096C242.726 95.9096 242.818 95.8614 242.87 95.7751C242.947 95.6457 242.904 95.4766 242.775 95.399C241.182 94.4466 239.252 94.9383 239.171 94.959C239.024 94.997 238.936 95.1471 238.974 95.2937C239.012 95.4404 239.164 95.5284 239.309 95.4904C239.338 95.4835 241.105 95.0418 242.492 95.87C242.537 95.8958 242.585 95.9096 242.633 95.9096Z" fill="#E08B65"/>
</svg>
