<svg width="9" height="11" viewBox="0 0 9 11" fill="none" xmlns="http://www.w3.org/2000/svg">
<path fill-rule="evenodd" clip-rule="evenodd" d="M1.28571 4.5V3.21429C1.28571 2.3618 1.62436 1.54424 2.22716 0.941442C2.82995 0.338647 3.64752 0 4.5 0C5.35248 0 6.17005 0.338647 6.77284 0.941442C7.37564 1.54424 7.71429 2.3618 7.71429 3.21429V4.5C8.05528 4.5 8.3823 4.63546 8.62342 4.87658C8.86454 5.1177 9 5.44472 9 5.78571V9C9 9.34099 8.86454 9.66802 8.62342 9.90914C8.3823 10.1503 8.05528 10.2857 7.71429 10.2857H1.28571C0.944722 10.2857 0.617695 10.1503 0.376577 9.90914C0.135459 9.66802 0 9.34099 0 9V5.78571C0 5.44472 0.135459 5.1177 0.376577 4.87658C0.617695 4.63546 0.944722 4.5 1.28571 4.5ZM6.42857 3.21429V4.5H2.57143V3.21429C2.57143 2.7028 2.77462 2.21226 3.13629 1.85058C3.49797 1.4889 3.98851 1.28571 4.5 1.28571C5.01149 1.28571 5.50203 1.4889 5.86371 1.85058C6.22538 2.21226 6.42857 2.7028 6.42857 3.21429Z" fill="#353535"/>
</svg>
