<svg width="21" height="25" viewBox="0 0 21 25" fill="none" xmlns="http://www.w3.org/2000/svg">
<path d="M1.53071 8.02784H1.46764C0.659179 8.02784 0 8.68911 0 9.49548V15.8853C0 16.6949 0.659179 17.354 1.46764 17.354H1.53178C2.34024 17.354 2.99942 16.6927 2.99942 15.8853V9.49543C2.99835 8.68911 2.33815 8.02784 1.53071 8.02784Z" fill="#3DDC84"/>
<path d="M3.70166 18.3517C3.70166 19.094 4.30825 19.6984 5.05048 19.6984H6.49185V23.1499C6.49185 23.9605 7.15313 24.6196 7.95949 24.6196H8.02256C8.83209 24.6196 9.4923 23.9594 9.4923 23.1499V19.6984H11.5066V23.1499C11.5066 23.9605 12.17 24.6196 12.9764 24.6196H13.0384C13.8479 24.6196 14.5071 23.9594 14.5071 23.1499V19.6984H15.9495C16.6906 19.6984 17.2973 19.094 17.2973 18.3517V8.26227H3.70166V18.3517Z" fill="#3DDC84"/>
<path d="M13.8857 2.14362L15.0306 0.376389C15.1042 0.264926 15.0716 0.112523 14.9591 0.0399524C14.8477 -0.0336417 14.6953 -0.00313183 14.6227 0.111451L13.4358 1.9397C12.5453 1.5749 11.5508 1.36991 10.5005 1.36991C9.44918 1.36991 8.45673 1.5749 7.5642 1.9397L6.37938 0.111451C6.30686 -0.00313183 6.15334 -0.0336417 6.04085 0.0399524C5.92836 0.112474 5.89576 0.264926 5.96935 0.376389L7.11527 2.14362C5.04942 3.15605 3.65645 5.06419 3.65645 7.253C3.65645 7.38757 3.66488 7.52004 3.67643 7.65143H17.3256C17.3372 7.52004 17.3445 7.38757 17.3445 7.253C17.3446 5.06419 15.9505 3.15605 13.8857 2.14362ZM7.33606 5.30807C6.97335 5.30807 6.67897 5.01579 6.67897 4.65206C6.67897 4.28833 6.97335 3.99707 7.33606 3.99707C7.70086 3.99707 7.99314 4.28828 7.99314 4.65206C7.99314 5.01584 7.69876 5.30807 7.33606 5.30807ZM13.6639 5.30807C13.3012 5.30807 13.0068 5.01579 13.0068 4.65206C13.0068 4.28833 13.3012 3.99707 13.6639 3.99707C14.0277 3.99707 14.3199 4.28828 14.3199 4.65206C14.3199 5.01579 14.0277 5.30807 13.6639 5.30807Z" fill="#3DDC84"/>
<path d="M19.5313 8.02784H19.4703C18.6619 8.02784 18.0006 8.68911 18.0006 9.49548V15.8853C18.0006 16.6949 18.663 17.354 19.4703 17.354H19.5324C20.3419 17.354 21 16.6927 21 15.8853V9.49543C21 8.68911 20.3398 8.02784 19.5313 8.02784Z" fill="#3DDC84"/>
</svg>
