<svg width="20" height="25" viewBox="0 0 20 25" fill="none" xmlns="http://www.w3.org/2000/svg">
<path d="M1.03213 8.9965C-1.03688 12.5869 0.278426 18.0354 2.56641 21.3391C3.70847 22.9908 4.86474 24.4734 6.44844 24.4734C6.47829 24.4734 6.50822 24.4728 6.53887 24.4716C7.28295 24.4419 7.82064 24.2128 8.34052 23.9914C8.92419 23.7427 9.52784 23.4855 10.4747 23.4855C11.3755 23.4855 11.9503 23.7344 12.5062 23.9749C13.0541 24.212 13.6184 24.4572 14.4523 24.4415C16.2362 24.4083 17.3315 22.8085 18.2978 21.3971C19.3062 19.9235 19.812 18.4927 19.9827 17.946L19.9896 17.9242C20.0221 17.8271 19.9762 17.721 19.883 17.6782C19.8805 17.677 19.871 17.6731 19.8684 17.6719C19.5542 17.5435 16.7986 16.321 16.7696 12.9891C16.7427 10.2821 18.8369 8.84861 19.2568 8.58879L19.2764 8.5766C19.3219 8.54731 19.3536 8.50085 19.3644 8.44773C19.3751 8.39469 19.3639 8.33949 19.3334 8.29487C17.8879 6.17957 15.6725 5.86077 14.7805 5.82242C14.6511 5.8095 14.5175 5.803 14.3834 5.803C13.3357 5.803 12.3322 6.19867 11.5259 6.51658C10.9694 6.73604 10.4886 6.92557 10.1571 6.92557C9.78452 6.92557 9.30108 6.73371 8.74124 6.51161C7.99259 6.21448 7.14405 5.87779 6.24576 5.87779C6.22433 5.87779 6.20323 5.87803 6.18245 5.87843C4.09378 5.90916 2.12019 7.1041 1.03213 8.9965Z" fill="black"/>
<path d="M14.7824 0.000154177C13.5176 0.0516686 12.0003 0.830243 11.0934 1.89247C10.3227 2.7853 9.56981 4.27393 9.76816 5.77443C9.7806 5.86831 9.85699 5.94076 9.95143 5.94807C10.0368 5.95473 10.1239 5.9581 10.2108 5.95818C11.4475 5.95818 12.7817 5.27397 13.6928 4.17226C14.6518 3.00893 15.1367 1.51598 14.99 0.178689C14.9784 0.0738953 14.8862 -0.00393809 14.7824 0.000154177Z" fill="black"/>
</svg>
