<svg width="86" height="22" viewBox="0 0 86 22" fill="none" xmlns="http://www.w3.org/2000/svg">
<path d="M12.3259 17.1919L14.5993 19.3772C13.0554 21.0093 10.899 22.0001 8.47966 22.0001C3.84623 22.0001 0 18.1539 0 13.5204C0 8.887 3.81737 5.04077 8.47966 5.04077C10.8397 5.04077 12.9961 5.97387 14.54 7.57553L12.2682 9.76078C11.3062 8.74111 9.96589 8.15752 8.47966 8.15752C5.44949 8.15752 3.1472 10.6634 3.1472 13.5188C3.1472 16.4624 5.56653 18.8513 8.47966 18.8513C9.99475 18.8529 11.3655 18.2116 12.3259 17.1919Z" fill="#353535"/>
<path d="M32.402 21.3586H29.2836V16.2602L27.5938 21.155C26.4571 21.7081 25.2338 21.9999 23.9223 21.9999C19.2889 21.9999 15.4426 18.1825 15.4426 13.4914C15.4426 8.85795 19.26 5.01172 23.9223 5.01172C25.2338 5.01172 26.4571 5.30351 27.5938 5.85664L29.2836 10.7225V5.62417H32.402V21.3586ZM23.9223 8.15893C20.9787 8.15893 18.5898 10.5478 18.5898 13.4914C18.5898 16.4061 20.9498 18.8527 23.9223 18.8527C26.8659 18.8527 29.2836 16.4638 29.2836 13.4914C29.2836 10.5189 26.8947 8.15893 23.9223 8.15893Z" fill="#353535"/>
<path d="M44.319 5.01172V8.15893C43.0076 8.15893 41.8131 8.6832 40.9682 9.52812C40.1233 10.373 39.599 11.5675 39.599 12.8789V21.3586H36.4518V5.62417H39.599V10.1406L41.6384 5.47827C42.541 5.15762 43.4148 5.01172 44.319 5.01172Z" fill="#353535"/>
<path d="M54.1952 5.01172V8.15893C52.8837 8.15893 51.6893 8.6832 50.8443 9.52812C49.9994 10.373 49.4752 11.5675 49.4752 12.8789V21.3586H46.3279V5.62417H49.4752V10.1406L51.5145 5.47827C52.4187 5.15762 53.2925 5.01172 54.1952 5.01172Z" fill="#353535"/>
<path d="M72.2896 13.5204C72.2896 18.1827 68.4434 22.0001 63.8099 22.0001C59.1765 22.0001 55.3303 18.1539 55.3303 13.5204C55.3303 8.887 59.1476 5.04077 63.8099 5.04077C68.5027 5.04077 72.2896 8.82929 72.2896 13.5204ZM69.144 13.5204C69.144 10.548 66.784 8.15912 63.8115 8.15912C60.7814 8.15912 58.4791 10.665 58.4791 13.5204C58.4791 16.464 60.8984 18.8529 63.8115 18.8529C66.7535 18.8529 69.144 16.4929 69.144 13.5204Z" fill="#353535"/>
<path d="M85.9847 8.77146H81.2936V21.3587H78.1463V8.77146H73.4263V5.62425H78.1463V0H81.2936V5.62425H85.9847V8.77146Z" fill="#353535"/>
</svg>
