<svg width="20" height="20" viewBox="0 0 20 20" fill="none" xmlns="http://www.w3.org/2000/svg">
<path fill-rule="evenodd" clip-rule="evenodd" d="M5.87667 0.06C6.94333 0.0116667 7.28417 0 10 0C12.7158 0 13.0567 0.0116667 14.1233 0.06C15.7483 0.134167 17.1758 0.5325 18.3217 1.67833C19.4675 2.82417 19.8658 4.25167 19.94 5.87667C19.9883 6.94333 20 7.28417 20 10C20 12.7158 19.9883 13.0567 19.94 14.1233C19.8658 15.7483 19.4675 17.1758 18.3217 18.3217C17.1758 19.4675 15.7483 19.8658 14.1233 19.94C13.0567 19.9883 12.7158 20 10 20C7.28417 20 6.94333 19.9883 5.87667 19.94C4.25167 19.8658 2.82417 19.4675 1.67833 18.3217C0.5325 17.1758 0.134167 15.7483 0.06 14.1233C0.0116667 13.0567 0 12.7158 0 10C0 7.28417 0.0116667 6.94333 0.06 5.87667C0.134167 4.25167 0.5325 2.82417 1.67833 1.67833C2.82417 0.5325 4.25167 0.134167 5.87667 0.06ZM14.0369 1.86009C12.9828 1.81176 12.6661 1.80176 9.99609 1.80176C7.32609 1.80176 7.00942 1.81176 5.95525 1.86009C4.81692 1.91176 3.76109 2.14009 2.94859 2.95259C2.13609 3.76509 1.90775 4.82092 1.85609 5.95926C1.80775 7.01342 1.79775 7.33009 1.79775 10.0001C1.79775 12.6701 1.80775 12.9868 1.85609 14.0409C1.90775 15.1793 2.13609 16.2351 2.94859 17.0476C3.76109 17.8601 4.81692 18.0884 5.95525 18.1401C7.00942 18.1884 7.32609 18.1984 9.99609 18.1984C12.6661 18.1984 12.9828 18.1884 14.0369 18.1401C15.1753 18.0884 16.2311 17.8601 17.0436 17.0476C17.8561 16.2351 18.0844 15.1793 18.1361 14.0409C18.1844 12.9868 18.1944 12.6701 18.1944 10.0001C18.1944 7.33009 18.1844 7.01342 18.1361 5.95926C18.0844 4.82092 17.8561 3.76509 17.0436 2.95259C16.2311 2.14009 15.1753 1.91176 14.0369 1.86009Z" fill="#F6E0DE"/>
<path fill-rule="evenodd" clip-rule="evenodd" d="M4.86212 10.0002C4.86212 7.1644 7.16129 4.86523 9.99712 4.86523C12.833 4.86523 15.1321 7.1644 15.1321 10.0002C15.1321 12.8361 12.833 15.1352 9.99712 15.1352C7.16129 15.1352 4.86212 12.8361 4.86212 10.0002ZM6.66788 10.0003C6.66788 11.8412 8.16038 13.3337 10.0012 13.3337C11.8421 13.3337 13.3345 11.8412 13.3345 10.0003C13.3345 8.15949 11.8421 6.66699 10.0012 6.66699C8.16038 6.66699 6.66788 8.15949 6.66788 10.0003Z" fill="#F6E0DE"/>
<path d="M15.3338 5.86143C15.9965 5.86143 16.5338 5.32417 16.5338 4.66143C16.5338 3.99868 15.9965 3.46143 15.3338 3.46143C14.671 3.46143 14.1338 3.99868 14.1338 4.66143C14.1338 5.32417 14.671 5.86143 15.3338 5.86143Z" fill="#F6E0DE"/>
</svg>
