<svg width="24" height="24" viewBox="0 0 24 24" fill="none" xmlns="http://www.w3.org/2000/svg">
<path d="M10.17 19C10.3194 19.0005 10.467 18.9675 10.6019 18.9035C10.7369 18.8394 10.8558 18.746 10.95 18.63L15.78 12.63C15.927 12.451 16.0074 12.2266 16.0074 11.995C16.0074 11.7633 15.927 11.5389 15.78 11.36L10.78 5.35997C10.6102 5.15575 10.3663 5.02733 10.1019 5.00295C9.83746 4.97857 9.57417 5.06023 9.36996 5.22997C9.16574 5.39971 9.03732 5.64362 9.01294 5.90805C8.98856 6.17247 9.07022 6.43575 9.23996 6.63997L13.71 12L9.38996 17.36C9.26768 17.5068 9.19 17.6855 9.16612 17.875C9.14224 18.0646 9.17316 18.257 9.25521 18.4295C9.33727 18.6021 9.46703 18.7475 9.62914 18.8486C9.79125 18.9497 9.97892 19.0022 10.17 19Z" fill="#EEB7B3"/>
</svg>
