<svg width="24" height="24" viewBox="0 0 24 24" fill="none" xmlns="http://www.w3.org/2000/svg">
<path d="M13.83 19C13.6806 19.0005 13.533 18.9675 13.3981 18.9035C13.2631 18.8394 13.1442 18.746 13.05 18.63L8.22004 12.63C8.07296 12.451 7.99255 12.2266 7.99255 11.995C7.99255 11.7633 8.07296 11.5389 8.22004 11.36L13.22 5.35997C13.3898 5.15575 13.6337 5.02733 13.8981 5.00295C14.1625 4.97857 14.4258 5.06023 14.63 5.22997C14.8343 5.39971 14.9627 5.64362 14.9871 5.90805C15.0114 6.17247 14.9298 6.43575 14.76 6.63997L10.29 12L14.61 17.36C14.7323 17.5068 14.81 17.6855 14.8339 17.875C14.8578 18.0646 14.8268 18.257 14.7448 18.4295C14.6627 18.6021 14.533 18.7475 14.3709 18.8486C14.2088 18.9497 14.0211 19.0022 13.83 19Z" fill="#EEB7B3"/>
</svg>
