<svg width="13" height="28" viewBox="0 0 13 28" fill="none" xmlns="http://www.w3.org/2000/svg">
<path d="M3.94391 24.8758L5.70883 17.3082C5.75653 17.1437 5.73268 16.9462 5.68498 16.8146C5.63728 16.6501 5.51803 16.5514 5.39878 16.4856L1.29652 14.676L2.91834 11.8792L2.17898 11.0566L0.104004 14.5772C0.00860225 14.7418 -0.015248 14.9721 0.00860235 15.1695C0.056303 15.3669 0.175554 15.5314 0.318656 15.5972L4.63557 17.5056L2.39364 27.0474C2.32208 27.3435 2.41749 27.6397 2.60829 27.8042C2.67984 27.87 2.77524 27.9029 2.84679 27.9029C2.96604 27.9029 3.08529 27.8371 3.1807 27.7055L8.73782 19.9733L8.07001 19.052L3.94391 24.8758Z" fill="#8BA5A6"/>
<path d="M8.47528 3.04728L7.06593 11.8578C7.04121 12.0216 7.06593 12.2181 7.14011 12.3491C7.21429 12.4801 7.33791 12.6111 7.46154 12.6439L11.6154 13.6265L10.1071 16.1812L10.8984 17L12.9011 13.5937C13 13.3972 13.0247 13.1679 12.9753 12.9714C12.9258 12.7749 12.7775 12.6111 12.6044 12.5456L8.15385 11.4648L9.85989 0.787335C9.88462 0.492559 9.78571 0.197784 9.58791 0.0667723C9.39011 -0.0642391 9.14286 0.00126662 8.99451 0.230537L4 8.02572L4.76648 8.87729L8.47528 3.04728Z" fill="#353535"/>
</svg>
