<svg width="20" height="20" viewBox="0 0 20 20" fill="none" xmlns="http://www.w3.org/2000/svg">
<path d="M20 3.91667C19.25 4.25 18.5 4.5 17.6667 4.58333C18.5 4.08333 19.1667 3.25 19.5 2.33333C18.6667 2.83333 17.8333 3.16667 16.9167 3.33333C16.1667 2.5 15.0833 2 13.9167 2C11.6667 2 9.83333 3.83333 9.83333 6.08333C9.83333 6.41667 9.83333 6.75 9.91667 7C6.41667 6.83333 3.41667 5.16667 1.41667 2.66667C1 3.33333 0.833333 4 0.833333 4.75C0.833333 6.16667 1.58333 7.41667 2.66667 8.16667C2 8.16667 1.33333 8 0.833333 7.66667C0.833333 7.66667 0.833333 7.66667 0.833333 7.75C0.833333 9.75 2.25 11.4167 4.08333 11.75C3.75 11.8333 3.41667 11.9167 3 11.9167C2.75 11.9167 2.5 11.9167 2.25 11.8333C2.75 13.5 4.25 14.6667 6.08333 14.6667C4.66667 15.75 2.91667 16.4167 1 16.4167C0.666667 16.4167 0.333333 16.4167 0 16.3333C1.83333 17.5 4 18.1667 6.25 18.1667C13.8333 18.1667 17.9167 11.9167 17.9167 6.5C17.9167 6.33333 17.9167 6.16667 17.9167 6C18.75 5.41667 19.4167 4.66667 20 3.91667Z" fill="white"/>
</svg>
