<svg id="CARROT_FINAL_LOGO_MARK" data-name="CARROT FINAL LOGO MARK" xmlns="http://www.w3.org/2000/svg" xmlns:xlink="http://www.w3.org/1999/xlink" width="3620" height="762" viewBox="0 0 3620 762">
  <metadata><?xpacket begin="﻿" id="W5M0MpCehiHzreSzNTczkc9d"?>
<x:xmpmeta xmlns:x="adobe:ns:meta/" x:xmptk="Adobe XMP Core 5.6-c138 79.159824, 2016/09/14-01:09:01        ">
   <rdf:RDF xmlns:rdf="http://www.w3.org/1999/02/22-rdf-syntax-ns#">
      <rdf:Description rdf:about=""/>
   </rdf:RDF>
</x:xmpmeta>
                                                                                                    
                                                                                                    
                                                                                                    
                                                                                                    
                                                                                                    
                                                                                                    
                                                                                                    
                                                                                                    
                                                                                                    
                                                                                                    
                                                                                                    
                                                                                                    
                                                                                                    
                                                                                                    
                                                                                                    
                                                                                                    
                                                                                                    
                                                                                                    
                                                                                                    
                                                                                                    
                           
<?xpacket end="w"?></metadata>
<defs>
    <style>
      .cls-1 {
        filter: url(#filter);
      }

      .cls-2, .cls-3, .cls-6 {
        fill: none;
      }

      .cls-2, .cls-3 {
        stroke: #fff;
      }

      .cls-2 {
        stroke-width: 160px;
      }

      .cls-2, .cls-5 {
        fill-rule: evenodd;
      }

      .cls-3, .cls-6 {
        stroke-width: 150px;
      }

      .cls-4, .cls-5 {
        fill: #fff;
      }

      .cls-6 {
        stroke: #fe5000;
      }
    </style>
    <filter id="filter" filterUnits="userSpaceOnUse">
      <feFlood result="flood"/>
      <feComposite result="composite" operator="in" in2="SourceGraphic"/>
      <feBlend result="blend" in2="SourceGraphic"/>
    </filter>
  </defs>
  <g id="Logo">
    <g id="Group_1_copy" data-name="Group 1 copy" class="cls-1">
      <path id="C_Modified" data-name="C Modified" class="cls-2" d="M664.208,479.7C623.663,597.413,511.929,681.989,380.442,681.989c-165.714,0-300.051-134.338-300.051-300.052S214.728,81.886,380.442,81.886c115.547,0,215.839,65.313,265.973,161.035"/>
      <g id="A2_Modified" data-name="A2 Modified">
        <circle id="A" class="cls-3" cx="1116.999" cy="484" r="197.53"/>
        <rect id="A_STROKE" data-name="A STROKE" class="cls-4" x="1247.38" y="503.812" width="142" height="254.188"/>
      </g>
      <path id="R" class="cls-5" d="M1639.7,758.008V452.771q0-27.6,13.02-49.74a97.46,97.46,0,0,1,84.89-48.177c12.84,0,81.5,2.6,94,7.813l0.79-145.313a204.475,204.475,0,0,0-57.29-8.333,198,198,0,0,0-74.22,14.062,188.266,188.266,0,0,0-61.19,39.063l-0.53-52.113H1495.42l0.53,547.975H1639.7Z"/>
      <path id="R-2" data-name="R" class="cls-5" d="M2080.53,758.008V452.771q0-27.6,13.03-49.74a97.46,97.46,0,0,1,84.89-48.177c12.84,0,86.59,2.6,99.09,7.813l-0.9-145.313c-19.1-5.55-41.6-8.333-60.69-8.333a198,198,0,0,0-74.22,14.062,188.311,188.311,0,0,0-61.2,39.063l-0.52-52.113H1936.26l0.52,547.975h143.75Z"/>
      <circle id="O_Modified" data-name="O Modified" class="cls-6" cx="2655" cy="484" r="197.53"/>
      <path id="T" class="cls-5" d="M3356.39,210.033h-90.05V0.689H3122.59V210.033h-91.32v143.75h91.32V758.008h143.75V353.783h90.05V210.033Z"/>
    </g>
    <circle id="Ellipse_4_copy" data-name="Ellipse 4 copy" cx="3539.565" cy="291.438" r="80.345"/>
  </g>
</svg>
