<svg width="97" height="188" viewBox="0 0 97 188" fill="none" xmlns="http://www.w3.org/2000/svg">
<path d="M0.966522 9.40607C2.94593 9.40607 4.54224 7.80978 4.54224 5.83037C4.54224 3.85096 2.94593 2.25467 0.966522 2.25467C-1.01289 2.25467 -2.60919 3.85096 -2.60919 5.83037C-2.60919 7.80978 -1.01289 9.40607 0.966522 9.40607Z" fill="#797979"/>
<path d="M10.5445 9.1507C12.3962 9.1507 13.8648 7.68211 13.8648 5.8304C13.8648 3.9787 12.3962 2.5101 10.5445 2.5101C8.69278 2.5101 7.22418 3.9787 7.22418 5.8304C7.22418 7.68211 8.69278 9.1507 10.5445 9.1507Z" fill="#828282"/>
<path d="M20.0583 8.89534C21.7823 8.89534 23.1231 7.55445 23.1231 5.83045C23.1231 4.10645 21.7184 2.76556 20.0583 2.76556C18.3343 2.76556 16.9933 4.1703 16.9933 5.83045C16.9933 7.55445 18.3981 8.89534 20.0583 8.89534Z" fill="#8B8B8B"/>
<path d="M29.6363 8.63982C31.1687 8.63982 32.4458 7.36277 32.4458 5.83033C32.4458 4.29788 31.1687 3.02084 29.6363 3.02084C28.1038 3.02084 26.8268 4.29788 26.8268 5.83033C26.8268 7.42663 28.1038 8.63982 29.6363 8.63982Z" fill="#959595"/>
<path d="M39.2141 8.38445C40.6188 8.38445 41.7681 7.23512 41.7681 5.83038C41.7681 4.42564 40.6188 3.27631 39.2141 3.27631C37.8093 3.27631 36.7238 4.42564 36.7238 5.83038C36.7238 7.23512 37.8093 8.38445 39.2141 8.38445Z" fill="#A0A0A0"/>
<path d="M48.7918 8.06521C50.005 8.06521 50.9628 7.10743 50.9628 5.83039C50.9628 4.6172 50.005 3.65942 48.7918 3.65942C47.5787 3.65942 46.6209 4.6172 46.6209 5.83039C46.557 7.04357 47.5787 8.06521 48.7918 8.06521Z" fill="#ACACAC"/>
<path d="M58.3694 7.68223C59.391 7.68223 60.2211 6.85216 60.2211 5.83053C60.2211 4.8089 59.391 3.97882 58.3694 3.97882C57.3478 3.97882 56.5177 4.8089 56.5177 5.83053C56.5177 6.85216 57.3478 7.68223 58.3694 7.68223Z" fill="#B9B9B9"/>
<path d="M67.9471 7.36286C68.7771 7.36286 69.4795 6.66049 69.4795 5.83042C69.4795 5.00034 68.7771 4.29797 67.9471 4.29797C67.117 4.29797 66.4146 5.00034 66.4146 5.83042C66.4146 6.66049 67.0531 7.36286 67.9471 7.36286Z" fill="#C6C6C6"/>
<path d="M77.461 6.97983C78.0995 6.97983 78.5465 6.46902 78.5465 5.89435C78.5465 5.25583 78.0356 4.80887 77.461 4.80887C76.8224 4.80887 76.3755 5.31968 76.3755 5.89435C76.3755 6.46902 76.8863 6.97983 77.461 6.97983Z" fill="#D5D5D5"/>
<path d="M87.0388 6.53283C87.4219 6.53283 87.7412 6.21357 87.7412 5.83046C87.7412 5.44735 87.4219 5.12808 87.0388 5.12808C86.6557 5.12808 86.3364 5.44735 86.3364 5.83046C86.3364 6.21357 86.6557 6.53283 87.0388 6.53283Z" fill="#E5E5E5"/>
<path d="M96.6166 6.08589C96.7443 6.08589 96.872 5.95819 96.872 5.83049C96.872 5.70278 96.7443 5.57507 96.6166 5.57507C96.4889 5.57507 96.3612 5.70278 96.3612 5.83049C96.3612 5.95819 96.4889 6.08589 96.6166 6.08589Z" fill="#F5F5F5"/>
<path d="M0.96646 19.0478C2.94587 19.0478 4.60601 17.4515 4.60601 15.4083C4.60601 13.365 2.94587 11.7687 0.96646 11.7687C-1.01295 11.7687 -2.6731 13.365 -2.6731 15.4083C-2.6731 17.4515 -1.0768 19.0478 0.96646 19.0478Z" fill="#767676"/>
<path d="M10.5444 18.8563C12.46 18.8563 13.9925 17.3239 13.9925 15.4083C13.9925 13.4927 12.46 11.9603 10.5444 11.9603C8.62889 11.9603 7.09644 13.4927 7.09644 15.4083C7.09644 17.3239 8.62889 18.8563 10.5444 18.8563Z" fill="#7E7E7E"/>
<path d="M20.0582 18.537C21.7822 18.537 23.1869 17.1322 23.1869 15.4082C23.1869 13.6842 21.7822 12.2795 20.0582 12.2795C18.3342 12.2795 16.9294 13.6842 16.9294 15.4082C16.9294 17.1322 18.3342 18.537 20.0582 18.537Z" fill="#888888"/>
<path d="M29.6362 18.2816C31.2325 18.2816 32.5095 17.0045 32.5095 15.4083C32.5095 13.812 31.2325 12.5349 29.6362 12.5349C28.0399 12.5349 26.7629 13.812 26.7629 15.4083C26.7629 17.0045 28.0399 18.2816 29.6362 18.2816Z" fill="#929292"/>
<path d="M39.2139 18.0262C40.6825 18.0262 41.8318 16.8769 41.8318 15.4083C41.8318 13.9397 40.6825 12.7903 39.2139 12.7903C37.8091 12.7903 36.5959 13.9397 36.5959 15.4083C36.5959 16.813 37.7453 18.0262 39.2139 18.0262Z" fill="#9D9D9D"/>
<path d="M48.7917 17.6431C50.0688 17.6431 51.0266 16.6215 51.0266 15.4083C51.0266 14.1951 50.0049 13.1735 48.7917 13.1735C47.5786 13.1735 46.5569 14.1951 46.5569 15.4083C46.4931 16.6853 47.5147 17.6431 48.7917 17.6431Z" fill="#AAAAAA"/>
<path d="M58.3694 17.3238C59.391 17.3238 60.2849 16.4937 60.2849 15.4082C60.2849 14.3228 59.4549 13.4927 58.3694 13.4927C57.2839 13.4927 56.4538 14.3228 56.4538 15.4082C56.4538 16.4937 57.2839 17.3238 58.3694 17.3238Z" fill="#B7B7B7"/>
<path d="M67.9474 17.0044C68.8413 17.0044 69.5437 16.3021 69.5437 15.4081C69.5437 14.5142 68.8413 13.8118 67.9474 13.8118C67.0534 13.8118 66.3511 14.5142 66.3511 15.4081C66.3511 16.3021 67.0534 17.0044 67.9474 17.0044Z" fill="#C4C4C4"/>
<path d="M77.4613 16.5575C78.0999 16.5575 78.6107 16.0467 78.6107 15.4082C78.6107 14.7697 78.0999 14.2589 77.4613 14.2589C76.8228 14.2589 76.312 14.7697 76.312 15.4082C76.312 16.0467 76.8228 16.5575 77.4613 16.5575Z" fill="#D3D3D3"/>
<path d="M87.039 16.1744C87.486 16.1744 87.8053 15.7913 87.8053 15.4082C87.8053 14.9612 87.4222 14.6419 87.039 14.6419C86.5921 14.6419 86.2728 15.0251 86.2728 15.4082C86.2728 15.8551 86.5921 16.1744 87.039 16.1744Z" fill="#E1E1E1"/>
<path d="M96.6165 15.7274C96.8081 15.7274 96.9358 15.5359 96.9358 15.4082C96.9358 15.2166 96.8081 15.0889 96.6165 15.0889C96.4249 15.0889 96.2972 15.2166 96.2972 15.4082C96.2972 15.5998 96.4249 15.7274 96.6165 15.7274Z" fill="#F2F2F2"/>
<path d="M0.966788 28.6894C3.01005 28.6894 4.67021 27.0293 4.67021 24.986C4.67021 22.9427 3.01005 21.2826 0.966788 21.2826C-1.07647 21.2826 -2.73663 22.9427 -2.73663 24.986C-2.73663 27.0293 -1.07647 28.6894 0.966788 28.6894Z" fill="#747474"/>
<path d="M10.5444 28.4341C12.46 28.4341 13.9924 26.9016 13.9924 24.9861C13.9924 23.0705 12.46 21.5381 10.5444 21.5381C8.62886 21.5381 7.09641 23.0705 7.09641 24.9861C7.03256 26.9016 8.56501 28.4341 10.5444 28.4341Z" fill="#7C7C7C"/>
<path d="M20.0584 28.1785C21.8463 28.1785 23.251 26.7099 23.251 24.9859C23.251 23.198 21.8463 21.7933 20.0584 21.7933C18.2706 21.7933 16.8658 23.2619 16.8658 24.9859C16.8658 26.7738 18.3344 28.1785 20.0584 28.1785Z" fill="#868686"/>
<path d="M29.6361 27.9231C31.2324 27.9231 32.5733 26.5823 32.5733 24.986C32.5733 23.3897 31.2324 22.0488 29.6361 22.0488C28.0398 22.0488 26.6989 23.3897 26.6989 24.986C26.6989 26.5823 28.0398 27.9231 29.6361 27.9231Z" fill="#909090"/>
<path d="M39.2139 27.604C40.6825 27.604 41.8318 26.4547 41.8318 24.9861C41.8318 23.5175 40.6825 22.3682 39.2139 22.3682C37.7453 22.3682 36.5959 23.5813 36.5959 24.9861C36.5959 26.4547 37.7453 27.604 39.2139 27.604Z" fill="#9C9C9C"/>
<path d="M48.7916 27.2847C50.0686 27.2847 51.0902 26.263 51.0902 24.986C51.0902 23.709 50.0686 22.6873 48.7916 22.6873C47.5146 22.6873 46.4929 23.709 46.4929 24.986C46.4929 26.263 47.5146 27.2847 48.7916 27.2847Z" fill="#A8A8A8"/>
<path d="M58.3692 26.9653C59.4547 26.9653 60.3486 26.0714 60.3486 24.9859C60.3486 23.9005 59.4547 23.0065 58.3692 23.0065C57.2838 23.0065 56.3898 23.9005 56.3898 24.9859C56.3898 26.0714 57.2838 26.9653 58.3692 26.9653Z" fill="#B5B5B5"/>
<path d="M67.9474 26.5822C68.8413 26.5822 69.5437 25.8798 69.5437 24.9859C69.5437 24.092 68.8413 23.3896 67.9474 23.3896C67.0534 23.3896 66.3511 24.092 66.3511 24.9859C66.3511 25.8798 67.0534 26.5822 67.9474 26.5822Z" fill="#C3C3C3"/>
<path d="M77.4613 26.1991C78.1637 26.1991 78.6745 25.6244 78.6745 24.9859C78.6745 24.2835 78.0999 23.7727 77.4613 23.7727C76.759 23.7727 76.2482 24.2835 76.2482 24.9859C76.2482 25.6244 76.8228 26.1991 77.4613 26.1991Z" fill="#D1D1D1"/>
<path d="M87.0391 25.8162C87.486 25.8162 87.8691 25.4331 87.8691 24.9861C87.8691 24.5391 87.486 24.156 87.0391 24.156C86.5921 24.156 86.209 24.5391 86.209 24.9861C86.209 25.4331 86.5921 25.8162 87.0391 25.8162Z" fill="#E0E0E0"/>
<path d="M96.6169 25.3691C96.8084 25.3691 97 25.1775 97 24.986C97 24.7944 96.8084 24.6028 96.6169 24.6028C96.4253 24.6028 96.2338 24.7944 96.2338 24.986C96.2338 25.1775 96.4253 25.3691 96.6169 25.3691Z" fill="#F1F1F1"/>
<path d="M0.966788 38.2033C3.01005 38.2033 4.67021 36.5431 4.67021 34.4999C4.67021 32.4566 3.01005 30.7964 0.966788 30.7964C-1.07647 30.7964 -2.73663 32.4566 -2.73663 34.4999C-2.73663 36.607 -1.07647 38.2033 0.966788 38.2033Z" fill="#747474"/>
<path d="M10.5444 38.0118C12.46 38.0118 13.9924 36.4794 13.9924 34.5639C13.9924 32.6483 12.46 31.1158 10.5444 31.1158C8.62886 31.1158 7.09641 32.6483 7.09641 34.5639C7.03256 36.4794 8.56501 38.0118 10.5444 38.0118Z" fill="#7C7C7C"/>
<path d="M20.0585 37.7564C21.8463 37.7564 23.3149 36.2878 23.3149 34.4999C23.3149 32.7121 21.8463 31.2435 20.0585 31.2435C18.2706 31.2435 16.802 32.7121 16.802 34.4999C16.8659 36.3516 18.2706 37.7564 20.0585 37.7564Z" fill="#858585"/>
<path d="M29.6361 37.5009C31.2324 37.5009 32.5733 36.16 32.5733 34.5637C32.5733 32.9036 31.2324 31.6266 29.6361 31.6266C28.0398 31.6266 26.6989 32.9675 26.6989 34.5637C26.6989 36.16 28.0398 37.5009 29.6361 37.5009Z" fill="#909090"/>
<path d="M39.2138 37.1817C40.6824 37.1817 41.8955 35.9685 41.8955 34.5638C41.8955 33.1591 40.6824 31.882 39.2138 31.882C37.7452 31.882 36.532 33.0952 36.532 34.5638C36.532 36.0324 37.7452 37.1817 39.2138 37.1817Z" fill="#9B9B9B"/>
<path d="M48.7915 36.8626C50.0685 36.8626 51.154 35.8409 51.154 34.5C51.154 33.223 50.1324 32.1375 48.7915 32.1375C47.5145 32.1375 46.429 33.1591 46.429 34.5C46.429 35.8409 47.5145 36.8626 48.7915 36.8626Z" fill="#A7A7A7"/>
<path d="M58.3694 36.5431C59.4548 36.5431 60.3487 35.6492 60.3487 34.5637C60.3487 33.4782 59.4548 32.5843 58.3694 32.5843C57.2839 32.5843 56.3899 33.4782 56.3899 34.5637C56.3261 35.6492 57.22 36.5431 58.3694 36.5431Z" fill="#B4B4B4"/>
<path d="M67.9474 36.1601C68.8413 36.1601 69.6075 35.3938 69.6075 34.4999C69.6075 33.606 68.8413 32.8398 67.9474 32.8398C67.0535 32.8398 66.2872 33.5421 66.2872 34.4999C66.2872 35.4577 66.9896 36.1601 67.9474 36.1601Z" fill="#C1C1C1"/>
<path d="M77.4613 35.7769C78.1637 35.7769 78.6745 35.2661 78.6745 34.5637C78.6745 33.8613 78.0999 33.3505 77.4613 33.3505C76.759 33.3505 76.2482 33.9252 76.2482 34.5637C76.2482 35.2022 76.8228 35.7769 77.4613 35.7769Z" fill="#D1D1D1"/>
<path d="M87.0391 35.3939C87.486 35.3939 87.8691 35.0108 87.8691 34.5638C87.8691 34.1169 87.486 33.7338 87.0391 33.7338C86.5921 33.7338 86.209 34.1169 86.209 34.5638C86.209 35.0108 86.5921 35.3939 87.0391 35.3939Z" fill="#E0E0E0"/>
<path d="M96.6169 34.9468C96.8084 34.9468 97 34.7553 97 34.5637C97 34.3722 96.8084 34.1806 96.6169 34.1806C96.4253 34.1806 96.2338 34.3722 96.2338 34.5637C96.2338 34.7553 96.4253 34.9468 96.6169 34.9468Z" fill="#F1F1F1"/>
<path d="M0.966655 47.7812C3.00991 47.7812 4.60621 46.121 4.60621 44.1416C4.60621 42.1622 2.94606 40.5021 0.966655 40.5021C-1.07661 40.5021 -2.6729 42.1622 -2.6729 44.1416C-2.73675 46.121 -1.07661 47.7812 0.966655 47.7812Z" fill="#757575"/>
<path d="M10.5444 47.5896C12.46 47.5896 13.9924 46.0572 13.9924 44.1416C13.9924 42.2261 12.46 40.6936 10.5444 40.6936C8.62886 40.6936 7.09641 42.2261 7.09641 44.1416C7.03256 45.9933 8.56501 47.5896 10.5444 47.5896Z" fill="#7C7C7C"/>
<path d="M20.0584 47.3341C21.8463 47.3341 23.251 45.8655 23.251 44.1415C23.251 42.3537 21.8463 40.9489 20.0584 40.9489C18.2706 40.9489 16.8658 42.4175 16.8658 44.1415C16.8658 45.8655 18.3344 47.3341 20.0584 47.3341Z" fill="#868686"/>
<path d="M29.6361 47.0787C31.2324 47.0787 32.5733 45.7378 32.5733 44.1415C32.5733 42.5452 31.2324 41.2043 29.6361 41.2043C28.0398 41.2043 26.6989 42.5452 26.6989 44.1415C26.6989 45.7378 28.0398 47.0787 29.6361 47.0787Z" fill="#909090"/>
<path d="M39.2139 46.7596C40.6825 46.7596 41.8318 45.6102 41.8318 44.1416C41.8318 42.7369 40.6825 41.5237 39.2139 41.5237C37.7453 41.5237 36.5959 42.7369 36.5959 44.1416C36.5959 45.5464 37.7453 46.7596 39.2139 46.7596Z" fill="#9C9C9C"/>
<path d="M48.7916 46.4403C50.0686 46.4403 51.0902 45.4186 51.0902 44.1416C51.0902 42.8646 50.0686 41.8429 48.7916 41.8429C47.5146 41.8429 46.4929 42.8646 46.4929 44.1416C46.4929 45.4186 47.5146 46.4403 48.7916 46.4403Z" fill="#A8A8A8"/>
<path d="M58.3692 46.0572C59.4547 46.0572 60.3486 45.1632 60.3486 44.0778C60.3486 42.9923 59.4547 42.0984 58.3692 42.0984C57.2838 42.0984 56.3898 42.9923 56.3898 44.0778C56.3898 45.1632 57.2838 46.0572 58.3692 46.0572Z" fill="#B5B5B5"/>
<path d="M67.9474 45.6741C68.8413 45.6741 69.5437 44.9717 69.5437 44.0778C69.5437 43.1839 68.8413 42.4815 67.9474 42.4815C67.0534 42.4815 66.3511 43.1839 66.3511 44.0778C66.3511 44.9717 67.0534 45.6741 67.9474 45.6741Z" fill="#C3C3C3"/>
<path d="M77.4613 45.3547C78.1637 45.3547 78.6745 44.78 78.6745 44.1415C78.6745 43.503 78.0999 42.9283 77.4613 42.9283C76.759 42.9283 76.2482 43.503 76.2482 44.1415C76.2482 44.78 76.8228 45.3547 77.4613 45.3547Z" fill="#D1D1D1"/>
<path d="M87.0391 44.9078C87.486 44.9078 87.8691 44.5247 87.8691 44.0777C87.8691 43.6308 87.486 43.2477 87.0391 43.2477C86.5921 43.2477 86.209 43.6308 86.209 44.0777C86.209 44.5886 86.5921 44.9078 87.0391 44.9078Z" fill="#E0E0E0"/>
<path d="M96.6169 44.4609C96.8084 44.4609 97 44.2693 97 44.0777C97 43.8862 96.8084 43.6946 96.6169 43.6946C96.4253 43.6946 96.2338 43.8862 96.2338 44.0777C96.2338 44.3332 96.4253 44.4609 96.6169 44.4609Z" fill="#F1F1F1"/>
<path d="M0.96646 57.295C2.94587 57.295 4.60601 55.6349 4.60601 53.6555C4.60601 51.6761 2.94587 50.0159 0.96646 50.0159C-1.01295 50.0159 -2.6731 51.6122 -2.6731 53.6555C-2.6731 55.6987 -1.0768 57.295 0.96646 57.295Z" fill="#767676"/>
<path d="M10.5445 57.1035C12.3962 57.1035 13.9286 55.571 13.9286 53.7193C13.9286 51.8676 12.3962 50.3351 10.5445 50.3351C8.69275 50.3351 7.16031 51.8676 7.16031 53.7193C7.09646 55.571 8.6289 57.1035 10.5445 57.1035Z" fill="#7F7F7F"/>
<path d="M20.0582 56.8481C21.7822 56.8481 23.1869 55.4433 23.1869 53.7193C23.1869 51.9953 21.7822 50.5906 20.0582 50.5906C18.3342 50.5906 16.9294 51.9953 16.9294 53.7193C16.9294 55.4433 18.3342 56.8481 20.0582 56.8481Z" fill="#888888"/>
<path d="M29.6362 56.5927C31.2325 56.5927 32.5095 55.3157 32.5095 53.7194C32.5095 52.1231 31.2325 50.8461 29.6362 50.8461C28.0399 50.8461 26.7629 52.1231 26.7629 53.7194C26.7629 55.2519 28.0399 56.5927 29.6362 56.5927Z" fill="#929292"/>
<path d="M39.2139 56.2734C40.6825 56.2734 41.8318 55.1241 41.8318 53.6555C41.8318 52.1869 40.6825 51.0376 39.2139 51.0376C37.8091 51.0376 36.5959 52.1869 36.5959 53.6555C36.5959 55.1241 37.7453 56.2734 39.2139 56.2734Z" fill="#9D9D9D"/>
<path d="M48.7917 55.9543C50.0688 55.9543 51.0266 54.9326 51.0266 53.7194C51.0266 52.4424 50.0049 51.4846 48.7917 51.4846C47.5786 51.4846 46.5569 52.5063 46.5569 53.7194C46.4931 54.9326 47.5147 55.9543 48.7917 55.9543Z" fill="#AAAAAA"/>
<path d="M58.3694 55.571C59.391 55.571 60.2849 54.7409 60.2849 53.6554C60.2849 52.5699 59.4549 51.7399 58.3694 51.7399C57.2839 51.7399 56.4538 52.5699 56.4538 53.6554C56.4538 54.7409 57.2839 55.571 58.3694 55.571Z" fill="#B7B7B7"/>
<path d="M67.9474 55.2517C68.8413 55.2517 69.5437 54.5493 69.5437 53.7193C69.5437 52.8892 68.8413 52.123 67.9474 52.123C67.0534 52.123 66.3511 52.8253 66.3511 53.7193C66.3511 54.6132 67.0534 55.2517 67.9474 55.2517Z" fill="#C4C4C4"/>
<path d="M77.4613 54.8686C78.0999 54.8686 78.6107 54.3578 78.6107 53.7193C78.6107 53.0808 78.0999 52.57 77.4613 52.57C76.8228 52.57 76.312 53.0808 76.312 53.7193C76.312 54.294 76.8228 54.8686 77.4613 54.8686Z" fill="#D3D3D3"/>
<path d="M87.039 54.4218C87.4222 54.4218 87.8053 54.1025 87.8053 53.6556C87.8053 53.2725 87.486 52.8893 87.039 52.8893C86.6559 52.8893 86.2728 53.2086 86.2728 53.6556C86.3367 54.1025 86.6559 54.4218 87.039 54.4218Z" fill="#E3E3E3"/>
<path d="M96.6165 53.9747C96.8081 53.9747 96.9358 53.847 96.9358 53.6554C96.9358 53.4639 96.8081 53.3362 96.6165 53.3362C96.4249 53.3362 96.2972 53.4639 96.2972 53.6554C96.2972 53.847 96.4249 53.9747 96.6165 53.9747Z" fill="#F3F3F3"/>
<path d="M0.966522 66.809C2.94593 66.809 4.54224 65.2127 4.54224 63.2333C4.54224 61.2539 2.94593 59.6576 0.966522 59.6576C-1.01289 59.6576 -2.60919 61.2539 -2.60919 63.2333C-2.60919 65.2127 -1.01289 66.809 0.966522 66.809Z" fill="#7A7A7A"/>
<path d="M10.5445 66.5535C12.3962 66.5535 13.8648 65.0849 13.8648 63.2332C13.8648 61.3815 12.3962 59.9129 10.5445 59.9129C8.69278 59.9129 7.22418 61.3815 7.22418 63.2332C7.22418 65.0849 8.69278 66.5535 10.5445 66.5535Z" fill="#828282"/>
<path d="M20.0583 66.2981C21.7823 66.2981 23.1231 64.8934 23.1231 63.2333C23.1231 61.5093 21.7184 60.1684 20.0583 60.1684C18.3343 60.1684 16.9933 61.5731 16.9933 63.2333C16.9933 64.9573 18.3981 66.2981 20.0583 66.2981Z" fill="#8B8B8B"/>
<path d="M29.6363 66.0428C31.1687 66.0428 32.4458 64.7657 32.4458 63.2333C32.4458 61.7008 31.2326 60.4238 29.6363 60.4238C28.04 60.4238 26.8268 61.637 26.8268 63.2333C26.8906 64.7657 28.1038 66.0428 29.6363 66.0428Z" fill="#969696"/>
<path d="M39.2141 65.7874C40.6188 65.7874 41.7681 64.6381 41.7681 63.2972C41.7681 61.8924 40.6188 60.8069 39.2141 60.8069C37.8093 60.8069 36.7238 61.9563 36.7238 63.2972C36.7238 64.6381 37.8093 65.7874 39.2141 65.7874Z" fill="#A0A0A0"/>
<path d="M48.7917 65.4043C50.0049 65.4043 50.9627 64.4465 50.9627 63.2333C50.9627 62.0202 50.0049 61.0624 48.7917 61.0624C47.5785 61.0624 46.6207 62.0202 46.6207 63.2333C46.6207 64.4465 47.5785 65.4043 48.7917 65.4043Z" fill="#ADADAD"/>
<path d="M58.3694 65.085C59.391 65.085 60.2211 64.2549 60.2211 63.2333C60.2211 62.2116 59.391 61.3816 58.3694 61.3816C57.3478 61.3816 56.5177 62.2116 56.5177 63.2333C56.5177 64.2549 57.3478 65.085 58.3694 65.085Z" fill="#B9B9B9"/>
<path d="M67.9473 64.7018C68.7774 64.7018 69.4159 64.0633 69.4159 63.2332C69.4159 62.4032 68.7774 61.7646 67.9473 61.7646C67.1172 61.7646 66.4787 62.4032 66.4787 63.2332C66.4149 64.0633 67.1172 64.7018 67.9473 64.7018Z" fill="#C7C7C7"/>
<path d="M77.461 64.3825C78.0995 64.3825 78.5465 63.8717 78.5465 63.2332C78.5465 62.5947 78.0356 62.0839 77.461 62.0839C76.8224 62.0839 76.3755 62.5947 76.3755 63.2332C76.3755 63.8717 76.8863 64.3825 77.461 64.3825Z" fill="#D5D5D5"/>
<path d="M87.0388 63.9356C87.4219 63.9356 87.7412 63.6163 87.7412 63.2332C87.7412 62.8501 87.4219 62.5308 87.0388 62.5308C86.6557 62.5308 86.3364 62.8501 86.3364 63.2332C86.3364 63.6163 86.6557 63.9356 87.0388 63.9356Z" fill="#E5E5E5"/>
<path d="M96.6166 63.4887C96.7443 63.4887 96.872 63.361 96.872 63.2333C96.872 63.1056 96.7443 62.9778 96.6166 62.9778C96.4889 62.9778 96.3612 63.1056 96.3612 63.2333C96.3612 63.4248 96.4889 63.4887 96.6166 63.4887Z" fill="#F5F5F5"/>
<path d="M0.966623 76.2591C2.88218 76.2591 4.41463 74.7266 4.41463 72.811C4.41463 70.8955 2.88218 69.363 0.966623 69.363C-0.948933 69.363 -2.48138 70.8955 -2.48138 72.811C-2.48138 74.6627 -0.948933 76.2591 0.966623 76.2591Z" fill="#7E7E7E"/>
<path d="M10.5443 76.0037C12.3321 76.0037 13.7369 74.5351 13.7369 72.8111C13.7369 71.0871 12.3321 69.6185 10.5443 69.6185C8.75643 69.6185 7.35168 71.0233 7.35168 72.8111C7.35168 74.599 8.75643 76.0037 10.5443 76.0037Z" fill="#868686"/>
<path d="M20.0584 75.7484C21.6547 75.7484 22.9956 74.4075 22.9956 72.8112C22.9956 71.2149 21.6547 69.874 20.0584 69.874C18.4621 69.874 17.1212 71.2149 17.1212 72.8112C17.1212 74.4075 18.4621 75.7484 20.0584 75.7484Z" fill="#909090"/>
<path d="M29.636 75.4928C31.1046 75.4928 32.3178 74.2796 32.3178 72.811C32.3178 71.2785 31.1046 70.1292 29.636 70.1292C28.1674 70.1292 26.9542 71.3424 26.9542 72.811C26.9542 74.2796 28.1674 75.4928 29.636 75.4928Z" fill="#999999"/>
<path d="M39.214 75.2374C40.5549 75.2374 41.6404 74.152 41.6404 72.8111C41.6404 71.4702 40.5549 70.3847 39.214 70.3847C37.8731 70.3847 36.7877 71.4702 36.7877 72.8111C36.7877 74.152 37.8731 75.2374 39.214 75.2374Z" fill="#A4A4A4"/>
<path d="M48.7918 74.9181C49.9411 74.9181 50.8989 73.9604 50.8989 72.811C50.8989 71.6617 49.9411 70.7039 48.7918 70.7039C47.6424 70.7039 46.6846 71.6617 46.6846 72.811C46.6846 73.9604 47.6424 74.9181 48.7918 74.9181Z" fill="#B0B0B0"/>
<path d="M58.3694 74.5989C59.3272 74.5989 60.0934 73.8326 60.0934 72.811C60.0934 71.8532 59.3272 71.087 58.3694 71.087C57.4116 71.087 56.5815 71.8532 56.5815 72.811C56.5815 73.7688 57.3478 74.5989 58.3694 74.5989Z" fill="#BDBDBD"/>
<path d="M67.9472 74.2158C68.7135 74.2158 69.352 73.5773 69.352 72.8111C69.352 72.0449 68.7135 71.4064 67.9472 71.4064C67.181 71.4064 66.5425 72.0449 66.5425 72.8111C66.5425 73.5773 67.181 74.2158 67.9472 74.2158Z" fill="#CBCBCB"/>
<path d="M77.4611 73.8327C78.0357 73.8327 78.4827 73.3857 78.4827 72.8111C78.4827 72.2364 78.0357 71.7894 77.4611 71.7894C76.8864 71.7894 76.4395 72.2364 76.4395 72.8111C76.5033 73.3857 76.9503 73.8327 77.4611 73.8327Z" fill="#D9D9D9"/>
<path d="M87.0389 73.3858C87.3582 73.3858 87.6136 73.1304 87.6136 72.8111C87.6136 72.4919 87.3582 72.2365 87.0389 72.2365C86.7196 72.2365 86.4642 72.4919 86.4642 72.8111C86.4642 73.1304 86.7196 73.3858 87.0389 73.3858Z" fill="#E9E9E9"/>
<path d="M96.6166 73.0027C96.6804 73.0027 96.8081 72.9388 96.8081 72.8111C96.8081 72.6834 96.7443 72.6196 96.6166 72.6196C96.4889 72.6196 96.425 72.6834 96.425 72.8111C96.425 72.9388 96.4889 73.0027 96.6166 73.0027Z" fill="#F8F8F8"/>
<path d="M0.966762 85.6453C2.75461 85.6453 4.2232 84.1767 4.2232 82.3888C4.2232 80.601 2.75461 79.1324 0.966762 79.1324C-0.82109 79.1324 -2.28967 80.601 -2.28967 82.3888C-2.28967 84.1767 -0.884942 85.6453 0.966762 85.6453Z" fill="#848484"/>
<path d="M10.5444 85.4537C12.2045 85.4537 13.6093 84.1128 13.6093 82.3888C13.6093 80.7287 12.2684 79.3239 10.5444 79.3239C8.88423 79.3239 7.47949 80.6648 7.47949 82.3888C7.47949 84.049 8.82038 85.4537 10.5444 85.4537Z" fill="#8C8C8C"/>
<path d="M20.0585 85.1983C21.591 85.1983 22.868 83.9213 22.868 82.3889C22.868 80.8564 21.591 79.5794 20.0585 79.5794C18.5261 79.5794 17.249 80.8564 17.249 82.3889C17.249 83.9213 18.5261 85.1983 20.0585 85.1983Z" fill="#959595"/>
<path d="M29.6362 84.943C31.0409 84.943 32.1902 83.7937 32.1902 82.3889C32.1902 80.9842 31.0409 79.8348 29.6362 79.8348C28.2314 79.8348 27.0821 80.9842 27.0821 82.3889C27.0821 83.7937 28.2314 84.943 29.6362 84.943Z" fill="#9F9F9F"/>
<path d="M39.2138 84.6236C40.4909 84.6236 41.4486 83.602 41.4486 82.3888C41.4486 81.1756 40.427 80.154 39.2138 80.154C37.9368 80.154 36.979 81.1756 36.979 82.3888C36.979 83.602 37.9368 84.6236 39.2138 84.6236Z" fill="#AAAAAA"/>
<path d="M48.7917 84.3043C49.8772 84.3043 50.7073 83.4742 50.7073 82.3888C50.7073 81.3033 49.8134 80.4732 48.7917 80.4732C47.7062 80.4732 46.8761 81.3671 46.8761 82.3888C46.8123 83.4742 47.7062 84.3043 48.7917 84.3043Z" fill="#B6B6B6"/>
<path d="M58.3697 83.9852C59.2636 83.9852 59.966 83.2828 59.966 82.3889C59.966 81.495 59.2636 80.7926 58.3697 80.7926C57.4757 80.7926 56.7734 81.495 56.7734 82.3889C56.7734 83.2828 57.4757 83.9852 58.3697 83.9852Z" fill="#C3C3C3"/>
<path d="M67.9473 83.602C68.6497 83.602 69.1605 83.0274 69.1605 82.325C69.1605 81.6226 68.5858 81.1118 67.9473 81.1118C67.245 81.1118 66.6703 81.6865 66.6703 82.325C66.6703 83.0912 67.245 83.602 67.9473 83.602Z" fill="#D0D0D0"/>
<path d="M77.4612 83.219C77.972 83.219 78.3551 82.8359 78.3551 82.3251C78.3551 81.8143 77.972 81.4312 77.4612 81.4312C76.9504 81.4312 76.5673 81.8143 76.5673 82.3251C76.6311 82.8359 77.0142 83.219 77.4612 83.219Z" fill="#DEDEDE"/>
<path d="M87.039 82.8358C87.2944 82.8358 87.486 82.6442 87.486 82.325C87.486 82.0696 87.2944 81.878 87.039 81.878C86.7836 81.878 86.5282 82.0696 86.5282 82.325C86.5921 82.6442 86.7836 82.8358 87.039 82.8358Z" fill="#EDEDED"/>
<path d="M96.6165 82.4521C96.6165 82.4521 96.6801 82.3885 96.6165 82.4521C96.6801 82.3885 96.6165 82.325 96.6165 82.325C96.5529 82.325 96.5529 82.3249 96.6165 82.4521C96.5529 82.3885 96.5529 82.4521 96.6165 82.4521Z" fill="#FDFDFD"/>
<path d="M0.966762 95.0314C2.69076 95.0314 4.03165 93.6267 4.03165 91.9666C4.03165 90.2426 2.62691 88.9017 0.966762 88.9017C-0.757239 88.9017 -2.09813 90.3064 -2.09813 91.9666C-2.16198 93.6267 -0.757239 95.0314 0.966762 95.0314Z" fill="#8B8B8B"/>
<path d="M10.5445 94.8399C12.1408 94.8399 13.4179 93.5629 13.4179 91.9666C13.4179 90.3703 12.1408 89.0933 10.5445 89.0933C8.94822 89.0933 7.67118 90.3703 7.67118 91.9666C7.60733 93.5629 8.88437 94.8399 10.5445 94.8399Z" fill="#929292"/>
<path d="M20.0584 94.5846C21.5269 94.5846 22.6763 93.4353 22.6763 91.9667C22.6763 90.4981 21.5269 89.3488 20.0584 89.3488C18.5898 89.3488 17.4404 90.5619 17.4404 91.9667C17.4404 93.3714 18.6536 94.5846 20.0584 94.5846Z" fill="#9C9C9C"/>
<path d="M29.636 94.3292C30.9769 94.3292 31.9985 93.2437 31.9985 91.9667C31.9985 90.6258 30.913 89.6042 29.636 89.6042C28.2951 89.6042 27.2734 90.6897 27.2734 91.9667C27.2734 93.2437 28.3589 94.3292 29.636 94.3292Z" fill="#A5A5A5"/>
<path d="M39.2139 94.0099C40.3633 94.0099 41.321 93.0522 41.321 91.9028C41.321 90.7535 40.3633 89.7957 39.2139 89.7957C38.0646 89.7957 37.1068 90.6897 37.1068 91.9028C37.1068 93.116 38.0646 94.0099 39.2139 94.0099Z" fill="#B0B0B0"/>
<path d="M48.7917 93.7545C49.7495 93.7545 50.5796 92.9883 50.5796 91.9666C50.5796 91.0089 49.8133 90.1788 48.7917 90.1788C47.7701 90.1788 47.0038 90.945 47.0038 91.9666C47.0038 92.9244 47.7701 93.7545 48.7917 93.7545Z" fill="#BCBCBC"/>
<path d="M58.3694 93.3713C59.1994 93.3713 59.838 92.7328 59.838 91.9027C59.838 91.1365 59.1994 90.4341 58.3694 90.4341C57.5393 90.4341 56.9008 91.0726 56.9008 91.9027C56.9008 92.7328 57.5393 93.3713 58.3694 93.3713Z" fill="#C9C9C9"/>
<path d="M67.9471 93.052C68.5218 93.052 69.0326 92.5412 69.0326 91.9666C69.0326 91.3919 68.5218 90.8811 67.9471 90.8811C67.3724 90.8811 66.8616 91.3919 66.8616 91.9666C66.7977 92.5412 67.3086 93.052 67.9471 93.052Z" fill="#D6D6D6"/>
<path d="M77.4609 92.669C77.844 92.669 78.1633 92.3497 78.1633 91.9666C78.1633 91.5835 77.844 91.2642 77.4609 91.2642C77.0778 91.2642 76.7585 91.5835 76.7585 91.9666C76.7585 92.3497 77.0778 92.669 77.4609 92.669Z" fill="#E4E4E4"/>
<path d="M87.0387 92.2858C87.2303 92.2858 87.358 92.1581 87.358 91.9665C87.358 91.775 87.2303 91.6473 87.0387 91.6473C86.8472 91.6473 86.7195 91.775 86.7195 91.9665C86.7195 92.0942 86.911 92.2858 87.0387 92.2858Z" fill="#F3F3F3"/>
<path d="M0.966655 104.418C2.56295 104.418 3.83999 103.141 3.83999 101.481C3.83999 99.8844 2.56295 98.6074 0.966655 98.6074C-0.629642 98.6074 -1.90668 99.8844 -1.90668 101.481C-1.97054 103.141 -0.629642 104.418 0.966655 104.418Z" fill="#929292"/>
<path d="M10.5444 104.162C12.013 104.162 13.2261 102.949 13.2261 101.48C13.2261 100.012 12.013 98.7987 10.5444 98.7987C9.07578 98.7987 7.86261 100.012 7.86261 101.48C7.86261 103.013 9.01193 104.162 10.5444 104.162Z" fill="#9A9A9A"/>
<path d="M20.0585 103.971C21.3994 103.971 22.4849 102.885 22.4849 101.544C22.4849 100.204 21.3994 99.118 20.0585 99.118C18.7176 99.118 17.6321 100.204 17.6321 101.544C17.6321 102.885 18.7176 103.971 20.0585 103.971Z" fill="#A3A3A3"/>
<path d="M29.6361 103.715C30.8492 103.715 31.807 102.758 31.807 101.545C31.807 100.331 30.8492 99.3735 29.6361 99.3735C28.4229 99.3735 27.4651 100.331 27.4651 101.545C27.4651 102.694 28.4229 103.715 29.6361 103.715Z" fill="#ADADAD"/>
<path d="M39.2137 103.396C40.2992 103.396 41.1293 102.566 41.1293 101.481C41.1293 100.459 40.2992 99.565 39.2137 99.565C38.1283 99.565 37.2982 100.395 37.2982 101.481C37.2982 102.566 38.1283 103.396 39.2137 103.396Z" fill="#B7B7B7"/>
<path d="M48.7919 103.077C49.6858 103.077 50.3882 102.374 50.3882 101.481C50.3882 100.587 49.6858 99.8842 48.7919 99.8842C47.8979 99.8842 47.1956 100.587 47.1956 101.481C47.1956 102.374 47.8979 103.077 48.7919 103.077Z" fill="#C3C3C3"/>
<path d="M58.3696 102.821C59.0719 102.821 59.6466 102.247 59.6466 101.544C59.6466 100.842 59.0719 100.267 58.3696 100.267C57.6672 100.267 57.0925 100.842 57.0925 101.544C57.0925 102.247 57.6672 102.821 58.3696 102.821Z" fill="#CFCFCF"/>
<path d="M67.9472 102.438C68.458 102.438 68.8412 101.991 68.8412 101.481C68.8412 100.97 68.458 100.587 67.9472 100.587C67.4364 100.587 66.9894 100.97 66.9894 101.481C66.9894 101.991 67.3726 102.438 67.9472 102.438Z" fill="#DCDCDC"/>
<path d="M77.4611 102.055C77.7804 102.055 77.9719 101.8 77.9719 101.544C77.9719 101.289 77.7165 101.034 77.4611 101.034C77.1419 101.034 76.9503 101.289 76.9503 101.544C76.9503 101.8 77.2057 102.055 77.4611 102.055Z" fill="#EBEBEB"/>
<path d="M87.039 101.672C87.1028 101.672 87.2305 101.608 87.2305 101.544C87.2305 101.48 87.1667 101.417 87.039 101.417C86.9751 101.417 86.9113 101.48 86.9113 101.544C86.9113 101.608 86.9751 101.672 87.039 101.672Z" fill="#F9F9F9"/>
<path d="M0.966681 113.74C2.43527 113.74 3.58461 112.527 3.58461 111.122C3.58461 109.654 2.37142 108.504 0.966681 108.504C-0.501912 108.504 -1.65125 109.654 -1.65125 111.122C-1.65125 112.527 -0.501912 113.74 0.966681 113.74Z" fill="#9C9C9C"/>
<path d="M10.5445 113.549C11.8854 113.549 12.9709 112.463 12.9709 111.122C12.9709 109.781 11.8854 108.696 10.5445 108.696C9.20365 108.696 8.11816 109.781 8.11816 111.122C8.05431 112.463 9.13979 113.549 10.5445 113.549Z" fill="#A3A3A3"/>
<path d="M20.0583 113.293C21.2714 113.293 22.2931 112.271 22.2931 111.058C22.2931 109.845 21.2714 108.823 20.0583 108.823C18.8451 108.823 17.8234 109.845 17.8234 111.058C17.8234 112.335 18.8451 113.293 20.0583 113.293Z" fill="#ABABAB"/>
<path d="M29.6359 113.038C30.7214 113.038 31.6153 112.144 31.6153 111.058C31.6153 109.973 30.7214 109.079 29.6359 109.079C28.5504 109.079 27.6565 109.973 27.6565 111.058C27.6565 112.144 28.5504 113.038 29.6359 113.038Z" fill="#B5B5B5"/>
<path d="M39.214 112.782C40.1079 112.782 40.8741 112.016 40.8741 111.122C40.8741 110.228 40.1079 109.462 39.214 109.462C38.3201 109.462 37.5538 110.228 37.5538 111.122C37.5538 112.016 38.3201 112.782 39.214 112.782Z" fill="#C0C0C0"/>
<path d="M48.7917 112.463C49.5579 112.463 50.1964 111.825 50.1964 111.058C50.1964 110.292 49.5579 109.654 48.7917 109.654C48.0255 109.654 47.387 110.292 47.387 111.058C47.387 111.825 48.0255 112.463 48.7917 112.463Z" fill="#CBCBCB"/>
<path d="M58.3694 112.144C58.944 112.144 59.4548 111.633 59.4548 111.058C59.4548 110.484 59.0079 109.973 58.3694 109.973C57.7947 109.973 57.2839 110.42 57.2839 111.058C57.2839 111.633 57.7947 112.144 58.3694 112.144Z" fill="#D7D7D7"/>
<path d="M67.9471 111.761C68.3302 111.761 68.6495 111.442 68.6495 111.058C68.6495 110.675 68.3302 110.356 67.9471 110.356C67.564 110.356 67.2448 110.675 67.2448 111.058C67.2448 111.442 67.564 111.761 67.9471 111.761Z" fill="#E5E5E5"/>
<path d="M77.461 111.378C77.6525 111.378 77.7802 111.25 77.7802 111.058C77.7802 110.867 77.6525 110.739 77.461 110.739C77.2694 110.739 77.1417 110.867 77.1417 111.058C77.1417 111.25 77.3333 111.378 77.461 111.378Z" fill="#F3F3F3"/>
<path d="M0.96645 123.063C2.30734 123.063 3.32896 121.977 3.32896 120.636C3.32896 119.295 2.24349 118.274 0.96645 118.274C-0.374439 118.274 -1.39606 119.359 -1.39606 120.636C-1.45991 121.977 -0.374439 123.063 0.96645 123.063Z" fill="#A5A5A5"/>
<path d="M10.5446 122.807C11.7578 122.807 12.7156 121.849 12.7156 120.636C12.7156 119.423 11.7578 118.465 10.5446 118.465C9.33141 118.465 8.37363 119.423 8.37363 120.636C8.30978 121.849 9.33141 122.807 10.5446 122.807Z" fill="#ADADAD"/>
<path d="M20.0582 122.615C21.1436 122.615 22.0375 121.722 22.0375 120.636C22.0375 119.551 21.1436 118.657 20.0582 118.657C18.9727 118.657 18.0787 119.551 18.0787 120.636C18.1426 121.722 18.9727 122.615 20.0582 122.615Z" fill="#B5B5B5"/>
<path d="M29.6362 122.36C30.594 122.36 31.3602 121.594 31.3602 120.636C31.3602 119.742 30.594 118.976 29.6362 118.976C28.6784 118.976 27.9122 119.742 27.9122 120.636C27.976 121.594 28.7422 122.36 29.6362 122.36Z" fill="#BFBFBF"/>
<path d="M39.2141 122.041C39.9803 122.041 40.6188 121.402 40.6188 120.636C40.6188 119.87 39.9803 119.231 39.2141 119.231C38.4479 119.231 37.8093 119.87 37.8093 120.636C37.7455 121.466 38.4479 122.041 39.2141 122.041Z" fill="#C9C9C9"/>
<path d="M48.7915 121.785C49.4301 121.785 49.9409 121.275 49.9409 120.636C49.9409 119.998 49.4301 119.487 48.7915 119.487C48.153 119.487 47.6422 119.998 47.6422 120.636C47.6422 121.275 48.153 121.785 48.7915 121.785Z" fill="#D4D4D4"/>
<path d="M58.3696 121.466C58.8166 121.466 59.1997 121.083 59.1997 120.636C59.1997 120.189 58.8166 119.806 58.3696 119.806C57.9227 119.806 57.5396 120.189 57.5396 120.636C57.5396 121.083 57.9227 121.466 58.3696 121.466Z" fill="#E0E0E0"/>
<path d="M67.9474 121.147C68.2028 121.147 68.3943 120.955 68.3943 120.636C68.3943 120.381 68.2028 120.189 67.9474 120.189C67.6919 120.189 67.4365 120.381 67.4365 120.636C67.4365 120.891 67.6281 121.147 67.9474 121.147Z" fill="#EDEDED"/>
<path d="M77.4611 120.699C77.5247 120.699 77.5247 120.636 77.5247 120.636C77.5247 120.572 77.4611 120.572 77.4611 120.572C77.3975 120.572 77.3975 120.572 77.3975 120.636C77.3975 120.699 77.4611 120.699 77.4611 120.699Z" fill="#FCFCFC"/>
<path d="M0.966743 132.321C2.11608 132.321 3.07387 131.363 3.07387 130.214C3.07387 129.065 2.11608 128.107 0.966743 128.107C-0.182591 128.107 -1.14038 129.065 -1.14038 130.214C-1.14038 131.363 -0.182591 132.321 0.966743 132.321Z" fill="#B0B0B0"/>
<path d="M10.5443 132.13C11.6298 132.13 12.4599 131.299 12.4599 130.214C12.4599 129.128 11.6298 128.298 10.5443 128.298C9.52271 128.298 8.62878 129.128 8.62878 130.214C8.62878 131.236 9.45885 132.13 10.5443 132.13Z" fill="#B7B7B7"/>
<path d="M20.0585 131.874C20.9524 131.874 21.7186 131.108 21.7186 130.214C21.7186 129.32 20.9524 128.554 20.0585 128.554C19.1646 128.554 18.3983 129.32 18.3983 130.214C18.3983 131.108 19.1646 131.874 20.0585 131.874Z" fill="#C0C0C0"/>
<path d="M29.6361 131.619C30.4024 131.619 31.0409 130.98 31.0409 130.214C31.0409 129.448 30.4024 128.809 29.6361 128.809C28.8699 128.809 28.2314 129.448 28.2314 130.214C28.2314 130.98 28.8699 131.619 29.6361 131.619Z" fill="#C9C9C9"/>
<path d="M39.2137 131.363C39.8522 131.363 40.363 130.852 40.363 130.214C40.363 129.575 39.8522 129.065 39.2137 129.065C38.5751 129.065 38.0643 129.575 38.0643 130.214C38.0643 130.852 38.5751 131.363 39.2137 131.363Z" fill="#D3D3D3"/>
<path d="M48.7918 131.108C49.3026 131.108 49.6857 130.725 49.6857 130.214C49.6857 129.703 49.3026 129.32 48.7918 129.32C48.281 129.32 47.8978 129.703 47.8978 130.214C47.8978 130.661 48.281 131.108 48.7918 131.108Z" fill="#DEDEDE"/>
<path d="M58.3695 130.789C58.6868 130.789 58.9441 130.531 58.9441 130.214C58.9441 129.897 58.6868 129.639 58.3695 129.639C58.0521 129.639 57.7948 129.897 57.7948 130.214C57.7948 130.531 58.0521 130.789 58.3695 130.789Z" fill="#EAEAEA"/>
<path d="M67.9471 130.405C68.0748 130.405 68.1386 130.278 68.1386 130.214C68.1386 130.086 68.0748 129.958 67.9471 129.958C67.8194 129.958 67.7555 130.086 67.7555 130.214C67.6917 130.342 67.8194 130.405 67.9471 130.405Z" fill="#F7F7F7"/>
<path d="M0.966678 141.58C1.92446 141.58 2.75452 140.813 2.75452 139.792C2.75452 138.77 1.98831 138.004 0.966678 138.004C0.00889963 138.004 -0.821167 138.77 -0.821167 139.792C-0.821167 140.813 -0.0549522 141.58 0.966678 141.58Z" fill="#BCBCBC"/>
<path d="M10.5443 141.388C11.4259 141.388 12.1406 140.673 12.1406 139.792C12.1406 138.91 11.4259 138.195 10.5443 138.195C9.66268 138.195 8.948 138.91 8.948 139.792C8.948 140.673 9.66268 141.388 10.5443 141.388Z" fill="#C3C3C3"/>
<path d="M20.0583 141.133C20.8245 141.133 21.463 140.494 21.463 139.792C21.463 139.025 20.8245 138.387 20.0583 138.387C19.2921 138.387 18.6536 139.025 18.6536 139.792C18.7174 140.558 19.2921 141.133 20.0583 141.133Z" fill="#CBCBCB"/>
<path d="M29.636 140.941C30.2745 140.941 30.7853 140.43 30.7853 139.792C30.7853 139.153 30.2745 138.642 29.636 138.642C28.9975 138.642 28.4866 139.153 28.4866 139.792C28.4866 140.43 28.9975 140.941 29.636 140.941Z" fill="#D4D4D4"/>
<path d="M39.214 140.686C39.7248 140.686 40.1079 140.303 40.1079 139.792C40.1079 139.281 39.7248 138.898 39.214 138.898C38.7032 138.898 38.3201 139.281 38.3201 139.792C38.3201 140.303 38.7032 140.686 39.214 140.686Z" fill="#DEDEDE"/>
<path d="M48.7916 140.366C49.1109 140.366 49.3663 140.111 49.3663 139.792C49.3663 139.472 49.1109 139.217 48.7916 139.217C48.4724 139.217 48.217 139.472 48.217 139.792C48.217 140.111 48.4724 140.366 48.7916 140.366Z" fill="#E9E9E9"/>
<path d="M58.3694 140.047C58.4971 140.047 58.6248 139.919 58.6248 139.792C58.6248 139.664 58.4971 139.536 58.3694 139.536C58.2417 139.536 58.114 139.664 58.114 139.792C58.114 139.919 58.1779 140.047 58.3694 140.047Z" fill="#F5F5F5"/>
<path d="M0.966637 150.838C1.79671 150.838 2.43523 150.199 2.43523 149.369C2.43523 148.539 1.79671 147.901 0.966637 147.901C0.136563 147.901 -0.501953 148.539 -0.501953 149.369C-0.501953 150.136 0.136563 150.838 0.966637 150.838Z" fill="#C9C9C9"/>
<path d="M10.5443 150.647C11.2467 150.647 11.8214 150.072 11.8214 149.37C11.8214 148.667 11.2467 148.092 10.5443 148.092C9.84197 148.092 9.2673 148.667 9.2673 149.37C9.20345 150.072 9.77812 150.647 10.5443 150.647Z" fill="#CFCFCF"/>
<path d="M20.0583 150.391C20.6329 150.391 21.1437 149.944 21.1437 149.306C21.1437 148.731 20.6329 148.22 20.0583 148.22C19.4836 148.22 18.9728 148.667 18.9728 149.306C19.0366 149.944 19.4836 150.391 20.0583 150.391Z" fill="#D7D7D7"/>
<path d="M29.6363 150.199C30.0947 150.199 30.4664 149.828 30.4664 149.369C30.4664 148.911 30.0947 148.539 29.6363 148.539C29.1779 148.539 28.8062 148.911 28.8062 149.369C28.8062 149.828 29.1779 150.199 29.6363 150.199Z" fill="#E0E0E0"/>
<path d="M39.214 149.88C39.5332 149.88 39.7886 149.625 39.7886 149.306C39.7886 148.986 39.5332 148.731 39.214 148.731C38.8947 148.731 38.6393 148.986 38.6393 149.306C38.6393 149.689 38.8947 149.88 39.214 149.88Z" fill="#EAEAEA"/>
<path d="M48.7916 149.625C48.9193 149.625 49.047 149.497 49.047 149.369C49.047 149.242 48.9193 149.114 48.7916 149.114C48.6639 149.114 48.5362 149.242 48.5362 149.369C48.5362 149.497 48.6001 149.625 48.7916 149.625Z" fill="#F5F5F5"/>
<path d="M0.966574 159.969C1.54124 159.969 2.05204 159.522 2.05204 158.883C2.05204 158.309 1.54124 157.798 0.966574 157.798C0.391907 157.798 -0.118896 158.309 -0.118896 158.883C-0.118896 159.522 0.328055 159.969 0.966574 159.969Z" fill="#D6D6D6"/>
<path d="M10.5445 159.841C11.0553 159.841 11.5022 159.394 11.5022 158.883C11.5022 158.373 11.1191 157.989 10.5445 157.989C10.0336 157.989 9.58667 158.373 9.58667 158.883C9.58667 159.394 10.0336 159.841 10.5445 159.841Z" fill="#DCDCDC"/>
<path d="M20.0582 159.586C20.4461 159.586 20.7606 159.271 20.7606 158.883C20.7606 158.495 20.4461 158.181 20.0582 158.181C19.6703 158.181 19.3558 158.495 19.3558 158.883C19.3558 159.271 19.6703 159.586 20.0582 159.586Z" fill="#E5E5E5"/>
<path d="M29.6362 159.394C29.8916 159.394 30.0832 159.139 30.0832 158.883C30.0832 158.628 29.8916 158.436 29.6362 158.436C29.3808 158.436 29.1254 158.628 29.1254 158.883C29.1892 159.203 29.3808 159.394 29.6362 159.394Z" fill="#EDEDED"/>
<path d="M39.2139 159.139C39.3416 159.139 39.4055 159.011 39.4055 158.947C39.4055 158.82 39.2778 158.756 39.2139 158.756C39.0862 158.756 39.0223 158.82 39.0223 158.947C39.0223 159.011 39.0862 159.139 39.2139 159.139Z" fill="#F7F7F7"/>
<path d="M0.966492 169.164C1.3496 169.164 1.66887 168.844 1.66887 168.461C1.66887 168.078 1.3496 167.759 0.966492 167.759C0.58338 167.759 0.264117 168.078 0.264117 168.461C0.200265 168.844 0.519529 169.164 0.966492 169.164Z" fill="#E4E4E4"/>
<path d="M10.5443 169.036C10.8636 169.036 11.0551 168.781 11.0551 168.525C11.0551 168.27 10.7997 168.014 10.5443 168.014C10.225 168.014 10.0335 168.27 10.0335 168.525C9.96962 168.781 10.225 169.036 10.5443 169.036Z" fill="#EBEBEB"/>
<path d="M20.0582 168.78C20.2498 168.78 20.3775 168.653 20.3775 168.461C20.3775 168.27 20.2498 168.142 20.0582 168.142C19.8667 168.142 19.739 168.27 19.739 168.461C19.739 168.653 19.9305 168.78 20.0582 168.78Z" fill="#F3F3F3"/>
<path d="M29.636 168.588C29.6996 168.588 29.6996 168.525 29.6996 168.525C29.6996 168.461 29.636 168.461 29.636 168.461C29.5724 168.461 29.5724 168.525 29.5724 168.525C29.5724 168.525 29.636 168.588 29.636 168.588Z" fill="#FCFCFC"/>
<path d="M0.966532 178.358C1.15809 178.358 1.28579 178.231 1.28579 178.039C1.28579 177.847 1.15809 177.72 0.966532 177.72C0.774977 177.72 0.647278 177.847 0.647278 178.039C0.647278 178.231 0.774977 178.358 0.966532 178.358Z" fill="#F3F3F3"/>
<path d="M10.5442 178.231C10.6081 178.231 10.7358 178.167 10.7358 178.103C10.7358 177.975 10.6719 177.911 10.5442 177.911C10.4804 177.911 10.4165 177.975 10.4165 178.103C10.3527 178.103 10.4165 178.231 10.5442 178.231Z" fill="#F9F9F9"/>
</svg>
